<?xml version="1.0" encoding="UTF-8" ?>
<!DOCTYPE svg PUBLIC "-//W3C//DTD SVG 1.1//EN" "http://www.w3.org/Graphics/SVG/1.1/DTD/svg11.dtd">
<svg width="832pt" height="821pt" viewBox="0 0 832 821" version="1.1" xmlns="http://www.w3.org/2000/svg">
<g id="#f6f6f6ff">
</g>
<g id="#ffffffff">
<path fill="#ffffff" opacity="1.00" d=" M 271.23 483.68 C 282.81 491.28 294.66 498.49 306.02 506.41 C 301.04 508.79 296.17 511.37 291.26 513.86 C 296.22 523.60 301.22 533.33 306.18 543.07 C 303.74 544.32 301.30 545.56 298.86 546.80 C 293.88 537.06 288.94 527.31 283.97 517.57 C 279.00 520.08 274.04 522.64 269.06 525.14 C 269.78 511.32 270.51 497.50 271.23 483.68 Z" />
</g>
<g id="#607279ff">
<path fill="#607279" opacity="1.00" d=" M 199.55 10.19 C 206.61 8.61 213.82 7.80 221.04 7.51 C 220.93 13.37 221.24 19.23 221.06 25.08 C 221.24 26.64 220.05 27.68 219.15 28.76 C 213.25 25.18 206.68 22.88 200.02 21.20 C 200.16 17.77 200.07 14.33 199.63 10.92 L 199.55 10.19 Z" />
</g>
<g id="#5a6b71ff">
<path fill="#5a6b71" opacity="1.00" d=" M 221.04 7.51 C 227.45 7.52 233.89 7.97 240.18 9.30 C 239.28 19.32 241.41 29.61 238.82 39.44 C 236.07 38.51 233.35 37.52 230.59 36.64 C 230.42 34.48 230.42 31.89 228.31 30.62 C 226.46 29.01 224.01 29.82 221.94 30.41 C 221.01 29.86 220.08 29.30 219.15 28.76 C 220.05 27.68 221.24 26.64 221.06 25.08 C 221.24 19.23 220.93 13.37 221.04 7.51 Z" />
</g>
<g id="#55656bff">
<path fill="#55656b" opacity="1.00" d=" M 240.18 9.30 C 247.14 10.74 253.91 13.12 260.22 16.41 C 259.76 23.40 260.58 30.46 259.42 37.41 C 258.92 40.41 259.11 43.46 259.55 46.46 C 252.67 44.04 245.71 41.84 238.82 39.44 C 241.41 29.61 239.28 19.32 240.18 9.30 Z" />
</g>
<g id="#667a80ff">
<path fill="#667a80" opacity="1.00" d=" M 175.77 17.38 C 183.53 14.48 191.45 11.95 199.54 10.15 L 199.63 10.92 C 200.07 14.33 200.16 17.77 200.02 21.20 C 192.97 19.64 185.75 18.23 178.50 18.67 L 177.99 18.69 C 177.24 18.26 176.51 17.82 175.77 17.38 Z" />
</g>
<g id="#4d5c61ff">
<path fill="#4d5c61" opacity="1.00" d=" M 260.22 16.41 C 268.92 21.04 276.72 27.30 283.23 34.70 C 288.28 42.48 294.24 49.82 297.61 58.57 C 291.61 57.87 286.18 55.04 280.37 53.60 C 273.44 51.20 266.45 48.95 259.55 46.46 C 259.11 43.46 258.92 40.41 259.42 37.41 C 260.58 30.46 259.76 23.40 260.22 16.41 Z" />
</g>
<g id="#1a1e21ff">
<path fill="#1a1e21" opacity="1.00" d=" M 178.50 18.67 C 185.75 18.23 192.97 19.64 200.02 21.20 C 206.68 22.88 213.25 25.18 219.15 28.76 C 220.08 29.30 221.01 29.86 221.94 30.41 C 219.88 32.47 219.79 35.34 219.65 38.06 C 212.69 38.10 205.72 38.30 198.77 37.91 C 199.10 34.74 197.05 32.05 195.37 29.57 C 191.22 24.11 185.00 20.57 178.50 18.67 Z" />
</g>
<g id="#384145ff">
<path fill="#384145" opacity="1.00" d=" M 229.52 37.29 C 229.79 37.13 230.32 36.80 230.59 36.64 C 233.35 37.52 236.07 38.51 238.82 39.44 C 245.71 41.84 252.67 44.04 259.55 46.46 C 266.45 48.95 273.44 51.20 280.37 53.60 C 266.42 55.11 252.28 53.01 238.34 54.65 C 236.43 48.46 234.21 41.96 229.52 37.29 Z" />
</g>
<g id="#262c2eff">
<path fill="#262c2e" opacity="1.00" d=" M 198.77 37.91 C 205.72 38.30 212.69 38.10 219.65 38.06 C 221.34 38.97 222.94 40.58 225.02 40.13 C 226.86 39.89 228.06 38.25 229.52 37.29 C 234.21 41.96 236.43 48.46 238.34 54.65 C 238.84 56.83 239.26 59.03 239.59 61.25 C 238.59 62.13 237.59 63.25 236.10 63.01 C 224.50 63.01 212.88 62.66 201.29 63.14 C 201.17 66.31 201.06 69.49 200.99 72.66 L 200.28 73.41 C 200.23 61.57 200.78 49.62 198.77 37.91 Z" />
</g>
<g id="#424c51ff">
<path fill="#424c51" opacity="1.00" d=" M 280.37 53.60 C 286.18 55.04 291.61 57.87 297.61 58.57 L 297.75 58.59 C 299.01 61.68 300.18 64.81 301.34 67.93 C 281.35 68.09 261.36 67.76 241.37 68.16 C 241.08 69.52 240.81 70.87 240.55 72.24 C 240.23 68.57 239.95 64.91 239.59 61.25 C 239.26 59.03 238.84 56.83 238.34 54.65 C 252.28 53.01 266.42 55.11 280.37 53.60 Z" />
</g>
<g id="#2f3639ff">
<path fill="#2f3639" opacity="1.00" d=" M 239.59 61.25 C 239.95 64.91 240.23 68.57 240.55 72.24 C 240.65 74.08 240.77 75.92 240.88 77.77 C 232.92 77.53 224.96 78.03 217.00 77.84 C 213.94 77.57 210.91 77.04 207.85 76.82 C 205.56 76.75 203.27 76.78 200.98 76.78 C 200.97 75.41 200.98 74.03 200.99 72.66 C 201.06 69.49 201.17 66.31 201.29 63.14 C 212.88 62.66 224.50 63.01 236.10 63.01 C 237.59 63.25 238.59 62.13 239.59 61.25 Z" />
</g>
<g id="#4c565cff">
<path fill="#4c565c" opacity="1.00" d=" M 241.37 68.16 C 261.36 67.76 281.35 68.09 301.34 67.93 C 302.81 71.75 304.32 75.56 305.84 79.36 C 296.53 79.27 287.20 79.70 277.89 79.19 C 269.53 78.12 261.07 79.23 252.70 78.31 C 248.77 77.84 244.82 77.66 240.88 77.77 C 240.77 75.92 240.65 74.08 240.55 72.24 C 240.81 70.87 241.08 69.52 241.37 68.16 Z" />
</g>
<g id="#445054ff">
<path fill="#445054" opacity="1.00" d=" M 200.28 73.41 L 200.99 72.66 C 200.98 74.03 200.97 75.41 200.98 76.78 C 203.27 76.78 205.56 76.75 207.85 76.82 C 206.41 78.57 205.66 80.72 205.87 83.01 C 206.08 96.68 205.85 110.35 206.00 124.02 C 205.90 128.36 205.78 132.70 206.38 137.01 C 210.12 132.54 213.60 127.87 217.13 123.23 C 223.10 115.79 228.72 108.05 234.95 100.82 C 235.52 102.01 236.08 103.21 236.65 104.41 C 238.53 104.92 240.42 105.42 242.33 105.84 C 243.72 113.55 244.14 121.42 245.75 129.10 C 246.56 132.82 247.26 136.55 247.87 140.31 C 242.21 129.91 238.36 118.66 233.19 108.02 C 234.83 118.29 234.64 128.74 235.81 139.06 C 236.45 142.41 236.33 145.84 235.91 149.21 C 234.76 147.06 234.57 144.61 234.40 142.23 C 221.36 146.07 208.25 149.67 195.32 153.84 L 195.16 153.90 C 192.21 139.49 191.94 124.42 195.41 110.07 C 198.34 98.06 199.41 85.68 200.28 73.41 Z" />
</g>
<g id="#3d474bff">
<path fill="#3d474b" opacity="1.00" d=" M 207.85 76.82 C 210.91 77.04 213.94 77.57 217.00 77.84 C 217.32 92.97 216.92 108.10 217.13 123.23 C 213.60 127.87 210.12 132.54 206.38 137.01 C 205.78 132.70 205.90 128.36 206.00 124.02 C 205.85 110.35 206.08 96.68 205.87 83.01 C 205.66 80.72 206.41 78.57 207.85 76.82 Z" />
</g>
<g id="#353e42ff">
<path fill="#353e42" opacity="1.00" d=" M 217.00 77.84 C 224.96 78.03 232.92 77.53 240.88 77.77 C 241.26 85.58 242.35 93.34 242.04 101.18 C 242.30 102.78 242.63 104.37 242.96 105.97 L 242.33 105.84 C 240.42 105.42 238.53 104.92 236.65 104.41 C 236.08 103.21 235.52 102.01 234.95 100.82 C 228.72 108.05 223.10 115.79 217.13 123.23 C 216.92 108.10 217.32 92.97 217.00 77.84 Z" />
</g>
<g id="#65777eff">
<path fill="#65777e" opacity="1.00" d=" M 240.88 77.77 C 244.82 77.66 248.77 77.84 252.70 78.31 C 261.07 79.23 269.53 78.12 277.89 79.19 C 287.21 80.13 296.62 79.46 305.97 79.53 C 307.45 83.02 308.97 86.51 310.38 90.04 C 307.94 90.45 305.49 90.82 303.02 90.88 C 283.15 90.98 263.28 90.68 243.41 91.08 C 243.28 94.36 243.20 97.65 242.88 100.92 L 242.04 101.18 C 242.35 93.34 241.26 85.58 240.88 77.77 Z" />
</g>
<g id="#59696fff">
<path fill="#59696f" opacity="1.00" d=" M 303.02 90.88 C 305.49 90.82 307.94 90.45 310.38 90.04 C 311.76 93.28 313.15 96.50 314.46 99.77 C 298.98 100.33 283.48 99.61 268.01 100.13 C 259.68 101.44 251.26 100.76 242.88 100.92 C 243.20 97.65 243.28 94.36 243.41 91.08 C 263.28 90.68 283.15 90.98 303.02 90.88 Z" />
</g>
<g id="#4e5d63ff">
<path fill="#4e5d63" opacity="1.00" d=" M 242.88 100.92 C 251.26 100.76 259.68 101.44 268.01 100.13 C 283.48 99.61 298.98 100.33 314.46 99.77 C 315.64 102.52 316.87 105.26 318.09 108.00 C 308.72 108.18 299.29 107.45 289.97 108.69 C 280.52 109.60 270.98 108.26 261.56 109.44 C 255.31 108.56 249.19 106.99 242.96 105.97 C 242.63 104.37 242.30 102.78 242.04 101.18 L 242.88 100.92 Z" />
</g>
<g id="#64777dff">
<path fill="#64777d" opacity="1.00" d=" M 242.33 105.84 L 242.96 105.97 C 249.19 106.99 255.31 108.56 261.56 109.44 C 262.48 109.62 264.32 109.98 265.25 110.17 C 263.25 112.21 261.01 114.06 259.39 116.43 C 258.87 118.24 258.97 120.16 258.94 122.02 C 259.10 130.99 259.04 139.96 258.99 148.94 C 256.73 149.72 254.47 150.50 252.21 151.28 C 250.69 147.65 249.31 143.96 247.87 140.31 C 247.26 136.55 246.56 132.82 245.75 129.10 C 244.14 121.42 243.72 113.55 242.33 105.84 Z" />
</g>
<g id="#313b3eff">
<path fill="#313b3e" opacity="1.00" d=" M 233.19 108.02 C 238.36 118.66 242.21 129.91 247.87 140.31 C 249.31 143.96 250.69 147.65 252.21 151.28 C 252.96 153.03 253.76 154.76 254.60 156.47 C 255.06 157.38 255.52 158.28 255.99 159.18 C 250.01 160.99 243.87 162.17 237.77 163.45 C 236.55 158.76 238.39 153.60 235.91 149.21 C 236.33 145.84 236.45 142.41 235.81 139.06 C 234.64 128.74 234.83 118.29 233.19 108.02 Z" />
</g>
<g id="#455257ff">
<path fill="#455257" opacity="1.00" d=" M 289.97 108.69 C 299.29 107.45 308.72 108.18 318.09 108.00 C 320.77 114.38 323.94 120.55 327.74 126.34 C 325.16 127.99 322.09 128.40 319.11 128.80 C 319.14 126.85 319.17 124.89 319.16 122.94 C 320.27 122.29 321.42 121.72 322.61 121.22 C 317.25 120.24 310.43 117.34 306.03 122.10 C 306.38 120.77 306.69 119.42 306.99 118.08 C 300.06 117.16 293.30 115.29 286.38 114.32 C 279.31 113.08 272.30 111.48 265.25 110.17 C 264.32 109.98 262.48 109.62 261.56 109.44 C 270.98 108.26 280.52 109.60 289.97 108.69 Z" />
</g>
<g id="#5e7076ff">
<path fill="#5e7076" opacity="1.00" d=" M 265.25 110.17 C 272.30 111.48 279.31 113.08 286.38 114.32 C 282.04 115.16 278.08 118.03 276.24 122.07 C 275.66 128.28 276.08 134.55 276.11 140.78 C 278.90 139.86 281.77 138.69 284.76 139.41 C 276.28 142.86 267.59 145.77 258.99 148.94 C 259.04 139.96 259.10 130.99 258.94 122.02 C 258.97 120.16 258.87 118.24 259.39 116.43 C 261.01 114.06 263.25 112.21 265.25 110.17 Z" />
</g>
<g id="#56666bff">
<path fill="#56666b" opacity="1.00" d=" M 286.38 114.32 C 293.30 115.29 300.06 117.16 306.99 118.08 C 306.69 119.42 306.38 120.77 306.03 122.10 C 304.07 124.41 301.79 126.43 299.92 128.82 C 298.27 130.65 299.56 133.14 299.78 135.24 C 295.64 134.63 291.85 136.44 288.12 137.94 L 287.72 137.95 C 286.73 138.44 285.76 138.96 284.76 139.41 C 281.77 138.69 278.90 139.86 276.11 140.78 C 276.08 134.55 275.66 128.28 276.24 122.07 C 278.08 118.03 282.04 115.16 286.38 114.32 Z" />
</g>
<g id="#4d585eff">
<path fill="#4d585e" opacity="1.00" d=" M 306.03 122.10 C 310.43 117.34 317.25 120.24 322.61 121.22 C 321.42 121.72 320.27 122.29 319.16 122.94 C 319.17 124.89 319.14 126.85 319.11 128.80 C 322.09 128.40 325.16 127.99 327.74 126.34 C 336.93 139.57 350.32 150.08 365.94 154.46 C 372.47 156.55 379.34 157.22 386.16 157.37 C 379.70 159.69 372.89 160.81 366.13 161.83 C 347.65 165.05 329.11 156.56 315.47 144.54 C 311.23 140.05 306.05 136.16 299.78 135.24 C 299.56 133.14 298.27 130.65 299.92 128.82 C 301.79 126.43 304.07 124.41 306.03 122.10 M 314.43 130.29 C 314.38 131.70 316.83 131.66 317.54 130.80 C 317.58 129.38 315.13 129.43 314.43 130.29 M 310.41 131.18 C 310.68 132.50 311.41 132.71 312.61 131.80 C 312.32 130.48 311.59 130.27 310.41 131.18 M 306.39 132.15 C 306.65 133.48 307.38 133.70 308.58 132.80 C 308.31 131.47 307.58 131.25 306.39 132.15 M 301.45 133.16 C 301.34 134.59 303.81 134.54 304.49 133.67 C 304.60 132.25 302.12 132.28 301.45 133.16 Z" />
</g>
<g id="#6e787dff">
<path fill="#6e787d" opacity="1.00" d=" M 314.43 130.29 C 315.13 129.43 317.58 129.38 317.54 130.80 C 316.83 131.66 314.38 131.70 314.43 130.29 Z" />
<path fill="#6e787d" opacity="1.00" d=" M 301.45 133.16 C 302.12 132.28 304.60 132.25 304.49 133.67 C 303.81 134.54 301.34 134.59 301.45 133.16 Z" />
</g>
<g id="#737d82ff">
<path fill="#737d82" opacity="1.00" d=" M 310.41 131.18 C 311.59 130.27 312.32 130.48 312.61 131.80 C 311.41 132.71 310.68 132.50 310.41 131.18 Z" />
</g>
<g id="#737d81ff">
<path fill="#737d81" opacity="1.00" d=" M 306.39 132.15 C 307.58 131.25 308.31 131.47 308.58 132.80 C 307.38 133.70 306.65 133.48 306.39 132.15 Z" />
</g>
<g id="#4e5c62ff">
<path fill="#4e5c62" opacity="1.00" d=" M 287.72 137.95 L 288.12 137.94 C 288.50 138.15 289.25 138.55 289.63 138.75 C 285.29 143.12 286.08 149.98 287.64 155.38 C 276.67 156.42 265.62 157.84 254.60 156.47 C 253.76 154.76 252.96 153.03 252.21 151.28 C 254.47 150.50 256.73 149.72 258.99 148.94 C 267.59 145.77 276.28 142.86 284.76 139.41 C 285.76 138.96 286.73 138.44 287.72 137.95 Z" />
</g>
<g id="#394347ff">
<path fill="#394347" opacity="1.00" d=" M 195.32 153.84 C 208.25 149.67 221.36 146.07 234.40 142.23 C 234.57 144.61 234.76 147.06 235.91 149.21 C 238.39 153.60 236.55 158.76 237.77 163.45 C 238.45 166.87 238.86 170.47 237.88 173.88 C 237.46 175.69 235.42 176.17 233.92 176.77 C 225.62 179.28 217.14 181.26 208.95 184.17 L 208.27 184.13 C 201.96 175.09 197.75 164.59 195.32 153.84 Z" />
</g>
<g id="#546369ff">
<path fill="#546369" opacity="1.00" d=" M 287.64 155.38 C 289.21 160.02 292.57 163.61 296.45 166.45 C 290.40 167.82 284.19 167.02 278.06 167.17 C 273.21 167.10 268.43 167.90 263.67 168.70 C 261.58 166.20 259.43 163.77 257.19 161.43 C 256.78 160.68 256.39 159.93 255.99 159.18 C 255.52 158.28 255.06 157.38 254.60 156.47 C 265.62 157.84 276.67 156.42 287.64 155.38 Z" />
</g>
<g id="#2c3438ff">
<path fill="#2c3438" opacity="1.00" d=" M 237.77 163.45 C 243.87 162.17 250.01 160.99 255.99 159.18 C 256.39 159.93 256.78 160.68 257.19 161.43 C 262.43 174.29 268.94 186.60 274.17 199.47 C 269.62 197.55 265.44 194.88 260.84 193.08 C 258.36 192.18 254.80 191.58 253.19 194.27 C 251.69 198.95 253.25 204.11 255.97 208.05 C 259.75 213.57 265.18 217.71 270.77 221.28 C 280.58 227.34 291.25 231.87 302.08 235.76 C 278.99 231.70 255.98 224.80 236.26 211.78 C 225.64 204.53 215.77 195.72 208.81 184.85 L 208.95 184.17 C 217.14 181.26 225.62 179.28 233.92 176.77 C 235.42 176.17 237.46 175.69 237.88 173.88 C 238.86 170.47 238.45 166.87 237.77 163.45 M 238.30 186.17 C 239.75 182.91 239.08 179.25 238.57 175.86 C 237.28 179.15 237.74 182.77 238.30 186.17 M 239.41 188.99 C 238.77 192.35 238.46 195.86 239.55 199.17 C 240.26 195.80 240.35 192.32 239.41 188.99 M 240.43 201.82 C 239.73 205.19 239.64 208.68 240.44 212.05 C 241.40 208.70 241.35 205.17 240.43 201.82 Z" />
</g>
<g id="#424e52ff">
<path fill="#424e52" opacity="1.00" d=" M 257.19 161.43 C 259.43 163.77 261.58 166.20 263.67 168.70 C 273.74 180.86 288.42 188.79 304.01 191.06 C 315.72 193.17 327.58 191.48 339.25 190.10 C 329.47 196.92 318.86 202.49 309.30 209.63 C 297.07 208.81 285.30 204.91 274.27 199.71 L 274.17 199.47 C 268.94 186.60 262.43 174.29 257.19 161.43 Z" />
</g>
<g id="#5e6f76ff">
<path fill="#5e6f76" opacity="1.00" d=" M 296.45 166.45 L 296.70 166.40 C 308.54 173.85 322.28 177.75 335.98 180.05 C 341.68 181.10 347.51 180.49 353.25 181.16 C 350.13 183.54 346.84 185.70 343.59 187.89 C 342.14 188.63 340.69 189.37 339.25 190.10 C 327.58 191.48 315.72 193.17 304.01 191.06 C 288.42 188.79 273.74 180.86 263.67 168.70 C 268.43 167.90 273.21 167.10 278.06 167.17 C 284.19 167.02 290.40 167.82 296.45 166.45 Z" />
</g>
<g id="#434a4dff">
<path fill="#434a4d" opacity="1.00" d=" M 238.30 186.17 C 237.74 182.77 237.28 179.15 238.57 175.86 C 239.08 179.25 239.75 182.91 238.30 186.17 Z" />
<path fill="#434a4d" opacity="1.00" d=" M 239.41 188.99 C 240.35 192.32 240.26 195.80 239.55 199.17 C 238.46 195.86 238.77 192.35 239.41 188.99 Z" />
<path fill="#434a4d" opacity="1.00" d=" M 240.43 201.82 C 241.35 205.17 241.40 208.70 240.44 212.05 C 239.64 208.68 239.73 205.19 240.43 201.82 Z" />
</g>
<g id="#363e43ff">
<path fill="#363e43" opacity="1.00" d=" M 353.25 181.16 L 353.76 180.77 C 358.34 180.67 362.93 180.25 367.52 180.59 C 360.08 184.41 351.92 187.06 343.59 187.89 C 346.84 185.70 350.13 183.54 353.25 181.16 Z" />
</g>
<g id="#212629ff">
<path fill="#212629" opacity="1.00" d=" M 367.52 180.59 C 371.60 180.03 375.76 180.57 379.85 180.82 C 379.84 183.89 379.86 186.95 379.88 190.02 C 372.22 191.25 364.75 193.55 357.69 196.77 C 342.34 203.31 326.40 210.58 309.30 209.63 C 318.86 202.49 329.47 196.92 339.25 190.10 C 340.69 189.37 342.14 188.63 343.59 187.89 C 351.92 187.06 360.08 184.41 367.52 180.59 Z" />
</g>
<g id="#2c3235ff">
<path fill="#2c3235" opacity="1.00" d=" M 379.85 180.82 C 391.35 181.58 402.90 183.13 413.84 186.84 C 421.01 189.48 428.64 193.13 432.37 200.20 C 420.89 193.12 407.41 190.18 394.10 189.12 C 389.33 188.80 384.62 189.71 379.88 190.02 C 379.86 186.95 379.84 183.89 379.85 180.82 Z" />
</g>
<g id="#57676dff">
<path fill="#57676d" opacity="1.00" d=" M 382.87 209.32 C 390.57 207.97 398.44 208.06 406.15 209.28 L 406.15 209.49 C 405.93 216.46 406.13 223.45 405.98 230.43 C 398.80 231.05 391.64 232.08 384.64 233.78 C 382.42 231.40 383.03 228.03 383.00 225.08 C 383.15 219.89 383.04 214.70 382.87 209.52 L 382.87 209.32 Z" />
</g>
<g id="#5d6f75ff">
<path fill="#5d6f75" opacity="1.00" d=" M 363.00 215.90 C 369.61 213.74 375.95 210.64 382.87 209.52 C 383.04 214.70 383.15 219.89 383.00 225.08 C 383.03 228.03 382.42 231.40 384.64 233.78 C 377.52 235.44 370.35 237.13 362.99 237.21 C 363.10 230.10 362.94 223.00 363.00 215.90 Z" />
</g>
<g id="#4f5e64ff">
<path fill="#4f5e64" opacity="1.00" d=" M 406.15 209.49 C 424.43 212.67 440.71 223.90 452.13 238.29 C 438.45 229.73 421.61 228.97 405.98 230.43 C 406.13 223.45 405.93 216.46 406.15 209.49 Z" />
</g>
<g id="#63767cff">
<path fill="#63767c" opacity="1.00" d=" M 343.08 220.90 C 349.82 219.67 356.46 217.96 363.00 215.90 C 362.94 223.00 363.10 230.10 362.99 237.21 C 356.27 237.32 349.57 236.54 342.99 235.21 C 343.02 230.44 343.05 225.67 343.08 220.90 Z" />
</g>
<g id="#058f47ff">
<path fill="#058f47" opacity="1.00" d=" M 763.49 217.66 C 774.22 216.09 785.57 220.05 792.86 228.11 C 804.19 239.98 804.59 260.29 793.68 272.57 C 783.09 285.61 762.27 288.24 748.80 278.20 C 736.15 269.70 731.15 252.07 737.07 238.09 C 741.43 227.24 751.84 219.06 763.49 217.66 Z" />
<path fill="#058f47" opacity="1.00" d=" M 172.10 276.08 C 200.74 261.60 232.97 254.93 264.97 255.06 C 293.20 255.26 321.37 261.85 346.69 274.34 C 385.34 292.92 418.19 323.47 439.04 360.98 C 449.44 379.36 457.15 399.32 461.15 420.08 C 466.35 445.78 464.69 472.12 464.75 498.16 C 445.10 500.04 425.32 500.06 405.60 499.80 C 410.60 481.68 413.83 462.76 411.90 443.94 C 408.73 407.91 391.61 373.47 365.36 348.69 C 341.48 326.63 310.48 312.03 278.01 308.97 C 243.42 305.02 207.55 314.00 178.85 333.72 C 160.31 345.86 145.07 362.58 133.60 381.48 C 121.02 367.40 111.24 351.17 100.89 335.46 C 119.26 310.22 144.14 289.89 172.10 276.08 Z" />
<path fill="#058f47" opacity="1.00" d=" M 748.97 316.99 C 760.30 307.37 778.91 307.89 789.46 318.46 C 793.28 322.28 795.57 327.55 795.59 332.97 C 795.65 364.86 795.56 396.76 795.63 428.65 L 795.33 428.82 C 777.99 438.58 759.92 447.01 741.39 454.25 C 741.03 414.17 741.35 374.08 741.23 334.00 C 741.01 327.52 743.97 321.10 748.97 316.99 Z" />
</g>
<g id="#3f484dff">
<path fill="#3f484d" opacity="1.00" d=" M 305.97 220.11 C 314.71 222.20 323.71 222.88 332.68 222.37 C 330.20 225.13 327.18 227.30 324.09 229.31 C 317.83 226.69 311.79 223.58 305.97 220.11 Z" />
</g>
<g id="#697c83ff">
<path fill="#697c83" opacity="1.00" d=" M 332.93 222.11 C 336.34 221.93 339.73 221.52 343.08 220.90 C 343.05 225.67 343.02 230.44 342.99 235.21 C 336.55 233.72 330.21 231.78 324.09 229.31 C 327.18 227.30 330.20 225.13 332.68 222.37 L 332.93 222.11 Z" />
</g>
<g id="#039047ff">
<path fill="#039047" opacity="1.00" d=" M 562.44 328.71 C 578.81 322.79 596.59 320.70 613.89 322.67 C 630.81 324.46 647.01 331.18 660.72 341.19 C 690.68 362.29 708.09 399.60 705.58 436.10 C 704.94 447.11 702.40 457.95 698.67 468.30 C 697.82 468.57 696.97 468.84 696.13 469.12 C 694.71 469.52 693.30 469.94 691.91 470.38 C 689.74 469.47 687.24 469.69 686.17 472.04 C 681.20 474.17 675.89 475.28 670.74 476.86 C 661.40 479.64 652.01 482.24 642.60 484.76 C 640.14 485.39 637.68 486.21 635.13 486.29 C 634.58 486.16 633.49 485.92 632.95 485.80 C 643.20 474.56 653.64 462.64 658.55 447.98 C 663.65 429.60 661.78 408.83 651.36 392.59 C 643.19 379.28 629.44 369.56 614.11 366.49 C 597.48 363.11 579.14 365.20 564.88 374.86 C 554.21 381.77 546.41 392.64 542.70 404.75 C 540.56 412.03 537.98 419.90 531.87 424.85 C 523.34 431.08 510.34 429.53 503.21 421.82 C 498.72 417.11 496.84 410.38 497.39 403.98 C 498.32 391.49 503.42 379.64 510.24 369.27 C 522.70 350.57 541.69 336.89 562.44 328.71 Z" />
</g>
<g id="#e5292cff">
<path fill="#e5292c" opacity="1.00" d=" M 205.12 349.21 C 232.74 334.27 266.23 330.96 296.36 339.61 C 324.23 347.51 349.03 365.74 364.82 390.03 C 385.82 421.42 390.67 462.76 377.77 498.23 C 338.67 495.66 299.91 487.47 263.16 473.84 C 264.52 469.00 264.13 463.94 264.15 458.99 C 264.15 444.67 264.15 430.35 264.16 416.04 C 264.17 412.00 263.50 407.46 260.22 404.71 C 256.60 401.61 251.56 401.72 247.08 401.69 C 242.37 401.78 237.15 401.28 233.06 404.08 C 229.52 406.45 228.35 410.94 228.32 414.99 C 228.28 429.35 228.33 443.71 228.31 458.07 C 221.27 454.46 214.45 450.42 207.66 446.36 C 210.62 443.49 214.57 441.25 216.19 437.31 C 217.10 431.93 216.38 426.42 216.61 420.99 C 216.55 415.78 217.28 409.71 213.49 405.52 C 209.55 401.27 203.25 401.70 197.96 401.69 C 193.21 401.64 187.59 402.46 184.88 406.87 C 181.78 412.02 183.05 418.35 182.82 424.06 C 186.68 424.07 190.54 424.07 194.40 424.06 C 194.47 420.64 194.02 417.15 194.79 413.79 C 196.77 409.56 205.56 410.56 204.98 415.96 C 205.00 421.62 205.29 427.31 204.78 432.95 C 203.41 436.08 200.29 437.95 197.89 440.24 C 182.03 428.91 166.64 416.82 152.99 402.86 C 164.22 380.14 182.70 361.07 205.12 349.21 M 271.56 453.16 C 271.93 456.26 273.04 459.22 273.82 462.24 C 280.55 462.26 287.29 462.26 294.02 462.24 C 294.14 468.41 294.03 474.59 294.10 480.76 C 297.85 480.73 301.60 480.73 305.36 480.78 C 305.48 474.61 305.40 468.44 305.42 462.27 C 307.62 462.26 309.84 462.25 312.05 462.24 C 312.11 459.25 312.05 456.26 311.95 453.28 C 309.80 453.32 307.65 453.35 305.50 453.40 C 305.31 436.18 305.48 418.96 305.41 401.73 C 301.56 401.73 297.71 401.73 293.86 401.72 C 286.42 418.87 278.83 435.96 271.56 453.16 M 315.77 412.02 C 316.60 414.39 317.39 416.77 318.26 419.12 C 320.72 418.57 323.15 417.94 325.58 417.25 C 325.52 438.37 325.70 459.49 325.49 480.61 C 329.33 480.81 333.18 480.76 337.02 480.74 C 336.98 455.60 337.18 430.46 336.93 405.32 C 334.18 404.08 331.48 402.75 328.79 401.42 C 325.47 406.05 321.24 410.10 315.77 412.02 Z" />
<path fill="#e5292c" opacity="1.00" d=" M 240.02 414.90 C 240.48 410.35 246.28 411.05 249.51 411.59 C 252.49 412.15 252.74 415.57 252.59 418.01 C 252.35 435.13 252.96 452.28 252.27 469.38 C 248.13 467.54 243.99 465.68 239.85 463.86 C 240.04 447.54 239.69 431.21 240.02 414.90 Z" />
<path fill="#e5292c" opacity="1.00" d=" M 293.27 426.57 C 293.73 425.22 294.35 423.94 295.14 422.75 C 295.15 432.96 294.69 443.16 294.40 453.36 C 290.84 453.34 287.28 453.34 283.72 453.33 C 286.86 444.40 290.15 435.52 293.27 426.57 Z" />
</g>
<g id="#006936ff">
<path fill="#006936" opacity="1.00" d=" M 100.89 335.46 C 111.24 351.17 121.02 367.40 133.60 381.48 C 112.69 415.86 107.24 458.86 117.64 497.60 C 122.18 514.27 129.85 530.03 139.75 544.17 C 157.73 570.05 184.27 589.71 213.99 600.04 C 234.77 607.18 257.18 609.47 278.99 606.96 C 310.37 603.79 340.14 589.48 363.31 568.25 C 383.14 549.74 398.04 525.87 405.60 499.80 C 425.32 500.06 445.10 500.04 464.75 498.16 C 464.43 540.76 464.70 583.38 464.61 625.99 C 464.50 631.02 465.05 636.15 463.85 641.11 C 461.95 649.23 455.68 656.05 447.91 658.99 C 439.87 661.94 430.29 660.89 423.39 655.70 C 416.79 651.02 412.71 643.07 412.77 634.97 C 412.75 617.94 412.75 600.92 412.77 583.90 C 400.29 597.49 386.56 609.96 371.49 620.65 C 354.37 632.74 336.15 643.70 316.13 650.25 C 294.59 657.56 271.57 659.94 248.93 658.49 C 206.93 656.34 165.89 640.33 133.29 613.81 C 104.26 590.50 82.53 558.51 70.73 523.26 C 61.41 494.97 58.85 464.64 61.95 435.07 C 65.69 399.16 79.62 364.56 100.89 335.46 Z" />
<path fill="#006936" opacity="1.00" d=" M 741.39 454.25 C 759.92 447.01 777.99 438.58 795.33 428.82 C 795.39 498.56 795.32 568.30 795.37 638.04 C 795.59 643.94 793.00 649.74 788.68 653.72 C 777.81 663.86 759.14 663.86 748.23 653.79 C 744.39 650.23 741.78 645.24 741.56 639.97 C 741.37 578.07 741.71 516.15 741.39 454.25 Z" />
<path fill="#006936" opacity="1.00" d=" M 691.91 470.38 C 693.30 469.94 694.71 469.52 696.13 469.12 C 696.72 468.97 697.91 468.69 698.51 468.54 C 689.08 493.43 670.55 513.46 651.12 531.06 C 621.11 558.93 591.05 586.76 561.05 614.65 C 601.36 614.63 641.67 614.66 681.98 614.64 C 689.33 614.43 696.69 617.95 700.96 623.96 C 706.06 630.73 706.80 640.45 702.81 647.92 C 698.91 655.46 690.45 660.02 682.04 659.76 C 625.67 659.76 569.29 659.77 512.91 659.76 C 505.80 659.85 498.37 657.92 493.15 652.87 C 487.66 648.37 484.77 640.94 485.97 633.93 C 487.37 626.86 492.03 621.00 497.06 616.07 C 528.01 586.67 558.96 557.28 589.91 527.88 C 604.28 514.17 618.91 500.72 632.63 486.35 C 633.26 486.33 634.51 486.30 635.13 486.29 C 637.68 486.21 640.14 485.39 642.60 484.76 C 652.01 482.24 661.40 479.64 670.74 476.86 C 675.89 475.28 681.20 474.17 686.17 472.04 C 688.22 472.12 690.22 471.59 691.91 470.38 Z" />
</g>
<g id="#f1f1f1ff">
<path fill="#f1f1f1" opacity="1.00" d=" M 184.88 406.87 C 187.59 402.46 193.21 401.64 197.96 401.69 C 203.25 401.70 209.55 401.27 213.49 405.52 C 217.28 409.71 216.55 415.78 216.61 420.99 C 216.38 426.42 217.10 431.93 216.19 437.31 C 214.57 441.25 210.62 443.49 207.66 446.36 C 204.14 449.67 200.08 452.46 196.97 456.19 C 195.83 461.10 196.70 466.26 196.46 471.27 C 202.97 471.28 209.48 471.29 215.98 471.27 C 216.00 474.43 216.00 477.59 215.98 480.76 C 205.61 480.73 195.24 480.75 184.87 480.75 C 184.85 473.15 184.87 465.55 184.83 457.95 C 184.91 455.44 184.78 452.60 186.57 450.59 C 189.93 446.73 194.11 443.68 197.89 440.24 C 200.29 437.95 203.41 436.08 204.78 432.95 C 205.29 427.31 205.00 421.62 204.98 415.96 C 205.56 410.56 196.77 409.56 194.79 413.79 C 194.02 417.15 194.47 420.64 194.40 424.06 C 190.54 424.07 186.68 424.07 182.82 424.06 C 183.05 418.35 181.78 412.02 184.88 406.87 Z" />
<path fill="#f1f1f1" opacity="1.00" d=" M 233.06 404.08 C 237.15 401.28 242.37 401.78 247.08 401.69 C 251.56 401.72 256.60 401.61 260.22 404.71 C 263.50 407.46 264.17 412.00 264.16 416.04 C 264.15 430.35 264.15 444.67 264.15 458.99 C 264.13 463.94 264.52 469.00 263.16 473.84 C 260.92 478.94 255.21 480.99 249.97 480.74 C 243.68 480.57 235.96 481.96 231.23 476.74 C 226.98 471.49 228.64 464.28 228.31 458.07 C 228.33 443.71 228.28 429.35 228.32 414.99 C 228.35 410.94 229.52 406.45 233.06 404.08 M 240.02 414.90 C 239.69 431.21 240.04 447.54 239.85 463.86 C 239.98 466.21 239.49 469.61 242.26 470.65 C 245.55 471.52 249.54 471.77 252.27 469.38 C 252.96 452.28 252.35 435.13 252.59 418.01 C 252.74 415.57 252.49 412.15 249.51 411.59 C 246.28 411.05 240.48 410.35 240.02 414.90 Z" />
<path fill="#f1f1f1" opacity="1.00" d=" M 271.56 453.16 C 278.83 435.96 286.42 418.87 293.86 401.72 C 297.71 401.73 301.56 401.73 305.41 401.73 C 305.48 418.96 305.31 436.18 305.50 453.40 C 307.65 453.35 309.80 453.32 311.95 453.28 C 312.05 456.26 312.11 459.25 312.05 462.24 C 309.84 462.25 307.62 462.26 305.42 462.27 C 305.40 468.44 305.48 474.61 305.36 480.78 C 301.60 480.73 297.85 480.73 294.10 480.76 C 294.03 474.59 294.14 468.41 294.02 462.24 C 287.29 462.26 280.55 462.26 273.82 462.24 C 273.04 459.22 271.93 456.26 271.56 453.16 M 293.27 426.57 C 290.15 435.52 286.86 444.40 283.72 453.33 C 287.28 453.34 290.84 453.34 294.40 453.36 C 294.69 443.16 295.15 432.96 295.14 422.75 C 294.35 423.94 293.73 425.22 293.27 426.57 Z" />
<path fill="#f1f1f1" opacity="1.00" d=" M 315.77 412.02 C 321.24 410.10 325.47 406.05 328.79 401.42 C 331.48 402.75 334.18 404.08 336.93 405.32 C 337.18 430.46 336.98 455.60 337.02 480.74 C 333.18 480.76 329.33 480.81 325.49 480.61 C 325.70 459.49 325.52 438.37 325.58 417.25 C 323.15 417.94 320.72 418.57 318.26 419.12 C 317.39 416.77 316.60 414.39 315.77 412.02 Z" />
</g>
<g id="#ac2126ff">
<path fill="#ac2126" opacity="1.00" d=" M 152.99 402.86 C 166.64 416.82 182.03 428.91 197.89 440.24 C 194.11 443.68 189.93 446.73 186.57 450.59 C 184.78 452.60 184.91 455.44 184.83 457.95 C 184.87 465.55 184.85 473.15 184.87 480.75 C 195.24 480.75 205.61 480.73 215.98 480.76 C 216.00 477.59 216.00 474.43 215.98 471.27 C 209.48 471.29 202.97 471.28 196.46 471.27 C 196.70 466.26 195.83 461.10 196.97 456.19 C 200.08 452.46 204.14 449.67 207.66 446.36 C 214.45 450.42 221.27 454.46 228.31 458.07 C 228.64 464.28 226.98 471.49 231.23 476.74 C 235.96 481.96 243.68 480.57 249.97 480.74 C 255.21 480.99 260.92 478.94 263.16 473.84 C 299.91 487.47 338.67 495.66 377.77 498.23 C 372.73 510.87 366.39 523.09 357.65 533.59 C 337.58 558.73 307.14 575.38 275.08 578.38 C 239.19 582.39 201.86 569.14 176.48 543.47 C 150.41 517.95 137.01 480.17 141.25 443.94 C 142.55 429.65 147.04 415.86 152.99 402.86 M 271.23 483.68 C 270.51 497.50 269.78 511.32 269.06 525.14 C 274.04 522.64 279.00 520.08 283.97 517.57 C 288.94 527.31 293.88 537.06 298.86 546.80 C 301.30 545.56 303.74 544.32 306.18 543.07 C 301.22 533.33 296.22 523.60 291.26 513.86 C 296.17 511.37 301.04 508.79 306.02 506.41 C 294.66 498.49 282.81 491.28 271.23 483.68 Z" />
<path fill="#ac2126" opacity="1.00" d=" M 239.85 463.86 C 243.99 465.68 248.13 467.54 252.27 469.38 C 249.54 471.77 245.55 471.52 242.26 470.65 C 239.49 469.61 239.98 466.21 239.85 463.86 Z" />
</g>
<g id="#2a985fff">
<path fill="#2a985f" opacity="1.00" d=" M 686.17 472.04 C 687.24 469.69 689.74 469.47 691.91 470.38 C 690.22 471.59 688.22 472.12 686.17 472.04 Z" />
</g>
<g id="#006a38ff">
<path fill="#006a38" opacity="1.00" d=" M 155.88 713.75 C 159.52 713.68 163.17 713.67 166.82 713.66 C 166.87 717.05 166.88 720.43 166.86 723.82 C 163.21 723.82 159.56 723.82 155.91 723.82 C 155.93 720.46 155.91 717.10 155.88 713.75 Z" />
<path fill="#006a38" opacity="1.00" d=" M 500.30 716.25 C 504.28 712.84 509.90 713.63 514.74 713.61 C 514.80 716.55 514.80 719.50 514.79 722.46 C 512.66 722.64 510.22 722.02 508.42 723.45 C 507.75 725.12 508.01 726.99 507.88 728.77 C 510.25 728.76 512.62 728.76 515.00 728.77 C 515.00 731.38 514.99 734.00 514.93 736.63 C 512.59 736.59 510.26 736.58 507.94 736.58 C 507.92 747.81 507.93 759.04 507.93 770.28 C 504.28 770.28 500.63 770.28 496.98 770.28 C 496.98 759.04 496.98 747.81 496.98 736.58 C 495.00 736.59 493.02 736.60 491.05 736.63 C 490.98 734.00 490.96 731.38 490.97 728.77 C 492.95 728.76 494.94 728.76 496.94 728.78 C 496.95 724.47 496.74 719.36 500.30 716.25 Z" />
<path fill="#006a38" opacity="1.00" d=" M 663.00 714.00 C 666.66 713.99 670.33 713.99 674.00 714.00 C 674.00 732.67 674.00 751.33 674.00 770.00 C 670.33 770.00 666.66 770.00 663.00 770.00 C 663.00 751.33 663.00 732.67 663.00 714.00 Z" />
<path fill="#006a38" opacity="1.00" d=" M 685.00 714.00 C 688.66 714.00 692.33 713.99 696.00 714.00 C 696.00 732.67 696.00 751.33 696.00 770.00 C 692.33 770.00 688.66 770.00 685.00 770.00 C 685.00 751.33 685.00 732.67 685.00 714.00 Z" />
<path fill="#006a38" opacity="1.00" d=" M 405.46 717.53 C 409.10 717.53 412.75 717.52 416.40 717.54 C 416.39 721.28 416.39 725.02 416.39 728.76 C 418.65 728.76 420.92 728.76 423.19 728.77 C 423.19 731.35 423.20 733.93 423.24 736.52 C 420.97 736.57 418.70 736.59 416.43 736.60 C 416.52 744.82 416.06 753.08 416.65 761.28 C 418.30 763.07 421.05 762.25 423.21 762.46 C 423.19 765.17 423.19 767.89 423.19 770.62 C 418.58 770.62 413.73 771.27 409.35 769.49 C 406.42 768.31 405.41 764.99 405.46 762.09 C 405.42 753.60 405.47 745.10 405.45 736.61 C 403.58 736.59 401.70 736.58 399.83 736.58 C 399.83 733.98 399.83 731.40 399.84 728.81 C 401.72 728.75 403.62 728.71 405.52 728.68 C 405.43 724.96 405.43 721.24 405.46 717.53 Z" />
<path fill="#006a38" opacity="1.00" d=" M 187.75 734.80 C 192.10 727.02 203.32 725.46 210.15 730.79 C 213.53 733.41 214.94 737.83 214.86 742.00 C 214.87 751.42 214.84 760.85 214.86 770.27 C 211.22 770.28 207.59 770.28 203.95 770.28 C 203.95 762.18 203.95 754.10 203.96 746.01 C 203.91 743.29 203.95 740.06 201.60 738.21 C 197.68 735.54 191.41 736.91 189.39 741.34 C 188.35 743.39 188.22 745.72 188.24 747.99 C 188.27 755.42 188.26 762.84 188.26 770.27 C 184.58 770.30 180.91 770.30 177.24 770.21 C 177.32 756.42 177.30 742.62 177.25 728.83 C 180.75 728.76 184.26 728.73 187.77 728.77 C 187.77 730.77 187.77 732.78 187.75 734.80 Z" />
<path fill="#006a38" opacity="1.00" d=" M 235.43 734.89 C 239.67 727.17 250.65 725.48 257.54 730.54 C 261.13 733.14 262.67 737.72 262.57 742.03 C 262.55 751.45 262.60 760.87 262.53 770.30 C 258.89 770.27 255.25 770.27 251.61 770.28 C 251.59 761.83 251.63 753.39 251.61 744.95 C 251.55 742.69 251.37 740.10 249.60 738.47 C 246.74 736.18 242.41 736.45 239.46 738.45 C 236.83 740.38 235.90 743.82 235.97 746.95 C 235.94 754.72 235.98 762.50 235.96 770.28 C 232.31 770.28 228.67 770.28 225.02 770.28 C 225.02 756.44 225.01 742.60 225.02 728.77 C 228.51 728.76 232.01 728.76 235.50 728.77 C 235.49 730.80 235.48 732.84 235.43 734.89 Z" />
<path fill="#006a38" opacity="1.00" d=" M 285.35 728.45 C 293.51 726.36 303.31 728.46 308.52 735.46 C 313.87 742.97 314.09 753.67 309.78 761.71 C 302.26 774.97 279.55 774.58 272.80 760.78 C 268.51 751.70 269.46 739.19 277.45 732.42 C 279.72 730.49 282.48 729.20 285.35 728.45 M 287.47 737.61 C 283.34 739.23 281.83 744.00 281.62 748.07 C 281.43 752.39 282.01 757.42 285.56 760.37 C 288.96 762.82 293.99 762.81 297.43 760.43 C 300.59 757.98 301.41 753.74 301.55 749.96 C 301.54 746.10 300.90 741.80 297.92 739.05 C 295.10 736.60 290.87 736.34 287.47 737.61 Z" />
<path fill="#006a38" opacity="1.00" d=" M 366.92 729.61 C 372.86 727.13 379.75 727.12 385.88 728.90 C 390.42 730.12 394.34 734.11 394.34 739.01 C 394.52 747.22 394.26 755.45 394.44 763.68 C 394.34 766.17 395.99 768.16 397.19 770.20 C 393.09 770.34 388.99 770.26 384.90 770.28 C 384.56 768.69 384.21 767.08 383.90 765.51 C 378.94 771.04 370.28 773.21 363.58 769.66 C 355.83 765.50 356.12 752.77 363.42 748.31 C 368.98 744.86 375.91 745.94 381.92 743.90 C 384.41 742.82 384.04 739.29 382.21 737.77 C 377.86 735.04 370.20 736.12 369.60 742.17 C 366.11 742.20 362.62 742.20 359.14 742.19 C 359.73 737.15 361.97 731.75 366.92 729.61 M 372.25 753.40 C 368.32 754.67 367.55 760.86 371.22 762.89 C 374.85 764.56 379.33 762.88 381.93 760.08 C 384.32 757.39 383.55 753.59 383.76 750.31 C 380.08 751.93 375.99 752.04 372.25 753.40 Z" />
<path fill="#006a38" opacity="1.00" d=" M 436.29 730.15 C 443.97 726.21 454.61 726.72 460.79 733.20 C 465.54 738.36 466.33 745.76 466.31 752.47 C 456.75 752.54 447.18 752.33 437.62 752.58 C 438.23 755.26 438.61 758.28 440.76 760.26 C 444.81 763.93 452.34 763.33 454.84 758.10 C 458.55 758.07 462.26 758.04 465.96 758.28 C 464.34 762.16 462.19 766.08 458.47 768.33 C 452.06 772.34 443.59 772.20 436.81 769.18 C 430.64 766.31 427.61 759.47 427.08 753.00 C 425.99 744.61 428.33 734.48 436.29 730.15 M 438.01 745.39 C 443.73 745.39 449.46 745.42 455.20 745.37 C 454.69 740.73 451.10 736.12 446.02 736.67 C 441.30 736.66 438.42 741.12 438.01 745.39 Z" />
<path fill="#006a38" opacity="1.00" d=" M 531.45 728.70 C 538.94 726.51 547.84 727.78 553.61 733.32 C 558.10 737.57 559.83 743.97 559.74 750.00 C 559.70 756.59 557.16 763.52 551.62 767.41 C 543.30 773.20 530.81 772.74 523.36 765.71 C 517.43 759.90 516.22 750.71 518.05 742.92 C 519.50 736.18 524.79 730.51 531.45 728.70 M 534.43 737.61 C 531.02 738.94 529.24 742.59 528.82 746.04 C 528.21 750.15 528.45 754.69 530.68 758.32 C 533.22 762.41 539.04 763.09 543.15 761.18 C 546.93 759.31 548.22 754.80 548.44 750.90 C 548.60 746.77 548.06 742.09 544.92 739.09 C 542.11 736.59 537.84 736.34 534.43 737.61 Z" />
<path fill="#006a38" opacity="1.00" d=" M 583.93 728.92 C 586.21 727.66 588.87 727.73 591.39 727.60 C 591.48 731.31 591.46 735.02 591.51 738.74 C 588.13 738.77 584.36 738.46 581.51 740.62 C 578.88 742.52 578.25 745.98 578.25 749.03 C 578.22 756.11 578.27 763.20 578.25 770.28 C 574.63 770.25 571.02 770.26 567.42 770.36 C 567.13 756.51 567.42 742.66 567.27 728.82 C 570.77 728.76 574.27 728.73 577.77 728.77 C 577.77 731.17 577.77 733.58 577.77 735.99 C 579.48 733.38 581.08 730.44 583.93 728.92 Z" />
<path fill="#006a38" opacity="1.00" d=" M 625.04 729.93 C 630.75 727.18 637.50 727.18 643.58 728.58 C 648.13 729.61 652.51 733.04 652.98 737.96 C 653.42 746.66 652.88 755.40 653.23 764.12 C 653.09 766.49 654.96 768.17 655.78 770.25 C 651.73 770.31 647.69 770.25 643.66 770.29 C 643.33 768.69 642.99 767.08 642.68 765.50 C 636.96 772.07 625.11 773.98 619.07 766.90 C 614.74 761.09 616.26 751.30 622.94 747.89 C 628.21 745.07 634.46 745.72 640.10 744.14 C 643.46 743.30 642.87 738.30 640.02 737.22 C 637.28 736.20 634.01 736.01 631.35 737.33 C 629.44 738.23 629.03 740.46 628.27 742.22 C 624.80 742.20 621.34 742.19 617.89 742.19 C 618.54 737.40 620.46 732.24 625.04 729.93 M 630.58 753.58 C 626.92 755.09 626.43 761.08 630.04 762.92 C 633.53 764.51 637.77 762.93 640.39 760.38 C 643.03 757.73 642.28 753.73 642.48 750.37 C 638.66 751.99 634.40 752.01 630.58 753.58 Z" />
<path fill="#006a38" opacity="1.00" d=" M 155.92 728.77 C 159.56 728.76 163.21 728.76 166.86 728.77 C 166.87 742.60 166.86 756.44 166.87 770.28 C 163.21 770.28 159.56 770.28 155.91 770.28 C 155.91 756.44 155.91 742.60 155.92 728.77 Z" />
<path fill="#006a38" opacity="1.00" d=" M 314.81 728.77 C 318.87 728.76 322.93 728.76 326.99 728.77 C 329.86 738.99 332.77 749.20 335.59 759.43 C 338.82 749.26 341.48 738.92 344.64 728.73 C 348.50 728.78 352.36 728.76 356.22 728.77 C 351.21 742.61 346.20 756.45 341.18 770.28 C 337.35 770.27 333.54 770.27 329.72 770.29 C 324.70 756.47 319.77 742.61 314.81 728.77 Z" />
</g>
</svg>
