<?xml version="1.0" encoding="UTF-8" ?>
<!DOCTYPE svg PUBLIC "-//W3C//DTD SVG 1.1//EN" "http://www.w3.org/Graphics/SVG/1.1/DTD/svg11.dtd">
<svg width="960pt" height="102pt" viewBox="0 0 960 102" version="1.1" xmlns="http://www.w3.org/2000/svg">
<g id="#05ce78ff">
<path fill="#05ce78" opacity="1.00" d=" M 21.47 0.00 L 23.05 0.00 C 32.89 0.09 41.81 7.27 44.00 16.85 C 46.37 13.65 48.55 10.28 51.27 7.35 C 56.22 2.07 63.79 -0.68 70.97 0.46 C 78.72 1.46 85.79 6.82 88.62 14.14 C 91.40 20.95 90.24 29.06 85.97 34.99 C 82.44 39.99 78.76 44.87 75.19 49.83 C 79.05 55.32 83.25 60.56 86.91 66.18 C 90.99 72.78 91.21 81.55 87.37 88.30 C 83.47 95.62 75.29 100.32 67.01 100.16 C 60.73 100.12 54.43 97.46 50.25 92.72 C 47.85 90.00 45.90 86.93 43.83 83.97 C 42.17 89.56 38.70 94.77 33.39 97.46 C 25.66 101.60 15.49 100.90 8.60 95.39 C 3.39 91.45 0.36 85.10 0.00 78.63 L 0.00 21.94 C -0.01 10.39 9.94 0.28 21.47 0.00 Z" />
<path fill="#05ce78" opacity="1.00" d=" M 119.17 0.00 L 122.79 0.00 C 134.58 0.83 145.01 11.01 145.20 22.98 C 145.31 40.64 145.24 58.31 145.24 75.97 C 145.37 86.06 138.45 95.70 128.86 98.80 C 120.57 101.84 110.78 99.60 104.44 93.54 C 99.38 88.84 96.62 81.93 96.83 75.05 C 96.89 57.71 96.74 40.38 96.90 23.05 C 97.20 11.15 107.45 1.02 119.17 0.00 Z" />
<path fill="#05ce78" opacity="1.00" d=" M 202.60 0.00 L 206.60 0.00 C 215.72 0.64 225.33 3.32 231.86 10.08 C 238.71 17.02 240.50 28.07 236.98 37.04 C 234.57 43.30 228.84 47.42 222.93 50.09 C 228.13 52.52 233.22 55.87 235.97 61.09 C 240.69 70.06 239.31 81.97 232.43 89.48 C 227.76 94.76 220.98 97.63 214.22 99.15 C 199.53 102.00 183.41 98.80 171.67 89.28 C 149.83 72.17 147.62 36.45 166.14 16.12 C 175.26 5.81 188.96 0.26 202.60 0.00 Z" />
<path fill="#05ce78" opacity="1.00" d=" M 268.85 0.00 L 270.13 0.00 C 280.01 0.06 288.94 7.25 291.21 16.85 C 295.01 11.33 298.76 5.17 305.17 2.38 C 315.86 -2.99 330.29 1.97 335.19 12.93 C 338.47 19.74 337.70 28.21 333.44 34.41 C 329.83 39.64 325.95 44.67 322.26 49.83 C 325.84 54.85 329.60 59.75 333.12 64.81 C 337.08 70.40 338.35 77.86 336.16 84.38 C 333.98 91.30 328.27 96.95 321.34 99.09 C 313.23 101.72 303.67 99.41 297.83 93.14 C 295.24 90.35 293.21 87.09 291.01 83.99 C 289.51 88.61 287.07 93.10 282.99 95.92 C 274.86 101.86 262.71 101.46 255.06 94.88 C 249.80 90.58 246.98 83.77 247.11 77.03 C 247.06 61.03 247.13 45.02 247.08 29.01 C 247.03 23.18 246.80 16.98 249.78 11.73 C 253.40 4.70 261.03 0.31 268.85 0.00 Z" />
<path fill="#05ce78" opacity="1.00" d=" M 379.58 0.00 L 385.65 0.00 C 392.96 0.51 400.49 1.42 407.10 4.83 C 418.02 9.56 422.79 25.43 414.64 34.60 C 411.85 37.77 407.71 39.12 403.76 40.17 C 408.70 44.57 414.00 48.76 417.74 54.31 C 426.05 66.31 422.86 84.50 411.22 93.22 C 401.85 100.44 389.51 102.13 378.00 101.79 C 368.49 101.41 358.39 100.19 350.43 94.54 C 342.30 88.97 339.56 76.53 345.33 68.37 C 348.98 63.25 355.46 61.54 361.43 61.20 C 354.72 55.03 346.99 49.00 344.04 40.01 C 340.76 29.12 343.98 16.17 352.87 8.82 C 360.26 2.58 370.14 0.40 379.58 0.00 Z" />
<path fill="#05ce78" opacity="1.00" d=" M 547.89 0.00 L 550.13 0.00 C 555.90 0.21 561.82 1.82 566.21 5.74 C 571.93 10.60 574.60 17.83 577.50 24.53 C 583.39 38.23 589.33 51.91 595.21 65.62 C 599.16 74.10 598.45 84.98 591.91 91.99 C 584.56 100.21 571.34 102.68 561.66 97.29 C 555.93 94.11 552.13 88.52 549.15 82.86 C 546.23 88.40 542.56 93.86 537.03 97.08 C 526.01 103.62 510.14 99.31 503.86 88.15 C 499.96 81.52 500.15 73.14 503.18 66.23 C 508.92 52.75 514.79 39.33 520.57 25.86 C 523.70 18.67 526.48 10.82 532.69 5.63 C 536.86 1.95 542.42 0.36 547.89 0.00 Z" />
<path fill="#05ce78" opacity="1.00" d=" M 425.73 11.73 C 429.54 5.48 436.75 1.67 444.04 1.71 C 459.03 1.64 474.02 1.66 489.02 1.70 C 496.32 1.62 503.55 5.40 507.44 11.61 C 512.45 19.23 511.80 30.01 505.89 36.95 C 502.15 41.63 496.38 44.25 490.48 44.81 C 490.44 56.51 490.55 68.22 490.44 79.92 C 490.23 88.50 484.44 96.40 476.60 99.68 C 467.16 103.92 455.09 101.62 448.32 93.66 C 444.82 89.65 442.79 84.36 442.82 79.03 C 442.78 67.62 442.82 56.21 442.81 44.80 C 437.35 44.17 431.95 41.99 428.23 37.84 C 421.62 31.02 420.60 19.69 425.73 11.73 Z" />
<path fill="#05ce78" opacity="1.00" d=" M 613.02 6.11 C 619.02 1.67 626.82 1.58 633.97 1.67 C 642.62 1.75 651.27 1.53 659.92 1.77 C 672.44 2.21 684.27 11.01 687.94 23.03 C 691.46 33.94 688.37 47.01 679.13 54.17 C 682.36 59.48 685.96 64.59 688.96 70.05 C 693.00 78.11 691.37 88.62 685.06 95.08 C 679.19 101.31 669.54 103.44 661.54 100.48 C 655.08 98.34 650.52 92.85 647.67 86.89 C 645.21 93.87 639.35 99.70 631.99 101.21 C 623.09 103.50 613.21 99.34 608.29 91.68 C 605.33 87.41 604.30 82.14 604.37 77.03 C 604.42 60.05 604.31 43.07 604.43 26.09 C 604.46 18.70 606.70 10.59 613.02 6.11 Z" />
<path fill="#05ce78" opacity="1.00" d=" M 696.75 10.86 C 700.78 4.93 707.93 1.54 715.05 1.69 C 729.68 1.65 744.32 1.67 758.96 1.69 C 764.88 1.58 770.86 3.75 775.03 8.02 C 781.36 14.18 783.08 24.38 779.29 32.33 C 776.09 39.50 768.75 44.22 760.99 44.80 C 760.97 56.20 761.01 67.60 760.98 78.99 C 761.03 85.25 758.24 91.44 753.56 95.58 C 745.83 102.54 733.56 103.80 724.61 98.50 C 717.74 94.60 713.16 86.94 713.25 79.01 C 713.21 67.61 713.25 56.21 713.23 44.81 C 707.40 44.16 701.70 41.61 697.95 37.01 C 691.74 29.86 691.28 18.55 696.75 10.86 Z" />
<path fill="#05ce78" opacity="1.00" d=" M 794.26 8.20 C 799.05 3.19 806.29 1.71 812.97 1.69 C 824.29 1.66 835.61 1.64 846.93 1.70 C 852.49 1.64 858.05 3.98 861.68 8.25 C 867.59 14.87 868.07 25.64 862.81 32.78 C 860.30 36.37 856.25 38.40 852.14 39.56 C 859.99 45.30 859.88 58.27 852.18 64.09 C 856.56 65.41 860.82 67.77 863.30 71.75 C 868.48 79.46 867.15 90.85 860.12 97.00 C 856.56 100.38 851.64 101.72 846.85 102.00 L 813.44 102.00 C 805.39 101.86 796.17 99.67 791.80 92.21 C 788.20 86.49 787.99 79.50 788.02 72.96 C 788.07 57.63 787.98 42.30 788.06 26.97 C 788.09 20.32 789.43 13.13 794.26 8.20 Z" />
<path fill="#05ce78" opacity="1.00" d=" M 878.38 9.29 C 882.81 3.75 890.19 1.79 897.01 1.72 C 907.30 1.64 917.60 1.62 927.89 1.73 C 937.27 1.89 946.38 6.53 952.05 14.01 C 961.34 25.73 959.98 44.81 947.95 54.19 C 952.40 62.28 959.76 69.48 960.00 79.24 L 960.00 80.46 C 959.66 85.58 957.90 90.70 954.39 94.51 C 947.77 102.12 935.72 104.02 927.02 98.97 C 922.14 96.41 918.94 91.72 916.49 86.93 C 914.53 91.73 911.47 96.26 906.84 98.83 C 900.04 102.83 891.08 102.82 884.36 98.65 C 877.53 94.63 873.25 86.89 873.23 78.99 C 873.11 62.33 873.22 45.66 873.18 29.00 C 873.13 22.17 873.86 14.76 878.38 9.29 Z" />
</g>
</svg>
