<?xml version="1.0" encoding="UTF-8"?>
<!DOCTYPE svg PUBLIC "-//W3C//DTD SVG 1.1//EN" "http://www.w3.org/Graphics/SVG/1.1/DTD/svg11.dtd">
<svg width="1024pt" height="677pt" viewBox="0 0 1024 677" version="1.1"
  xmlns="http://www.w3.org/2000/svg">
  <g id="#157874ff">
    <path fill="#157874" opacity="1.00"
      d=" M 218.31 44.23 C 222.12 42.01 227.26 45.61 226.86 49.89 C 226.78 53.40 227.80 57.99 224.48 60.38 C 220.99 63.23 215.05 60.56 215.01 56.02 C 214.85 52.02 213.89 46.35 218.31 44.23 Z" />
    <path fill="#157874" opacity="1.00"
      d=" M 142.46 75.62 C 144.67 74.56 147.43 75.04 149.16 76.77 C 151.24 78.66 153.48 80.55 154.81 83.08 C 156.72 87.26 152.36 92.29 147.95 91.08 C 144.72 89.98 142.55 87.06 140.32 84.62 C 137.91 81.85 139.10 77.06 142.46 75.62 Z" />
    <path fill="#157874" opacity="1.00"
      d=" M 294.43 75.55 C 299.06 73.21 304.58 78.64 302.34 83.30 C 300.43 86.27 297.82 88.93 294.80 90.78 C 290.24 92.91 284.95 87.64 287.01 83.05 C 288.88 80.07 291.51 77.50 294.43 75.55 Z" />
    <path fill="#157874" opacity="1.00"
      d=" M 207.40 80.55 C 221.63 78.03 236.57 79.58 249.96 85.02 C 265.85 91.37 279.45 103.20 288.00 118.01 C 296.38 132.41 299.99 149.58 297.81 166.11 C 295.70 182.63 287.97 198.37 276.17 210.12 C 273.68 212.60 270.93 214.82 268.68 217.54 C 263.64 223.57 260.44 231.18 259.88 239.04 C 259.58 241.79 259.83 244.80 258.27 247.25 C 256.41 250.46 252.71 252.28 249.04 252.14 C 230.38 252.16 211.71 252.14 193.05 252.14 C 187.42 252.64 182.02 247.88 182.19 242.16 C 182.13 231.40 177.51 220.73 169.38 213.62 C 156.85 202.67 148.08 187.53 144.86 171.20 C 141.38 154.29 144.11 136.28 152.12 121.02 C 162.97 99.92 184.03 84.54 207.40 80.55 M 213.43 109.78 C 208.23 110.33 208.03 116.03 206.92 119.92 C 204.64 122.82 200.81 123.93 197.75 125.84 C 193.87 128.37 190.00 123.81 185.98 124.94 C 183.01 125.61 181.36 128.41 179.72 130.71 C 177.52 134.24 175.12 137.89 174.45 142.06 C 174.33 146.79 180.48 147.71 181.24 152.03 C 181.73 154.98 181.65 158.00 181.36 160.97 C 181.11 165.89 174.00 166.76 174.46 171.95 C 176.02 177.76 179.27 183.22 183.47 187.51 C 186.95 190.54 191.19 187.54 194.95 187.03 C 198.71 187.60 201.80 190.20 205.11 191.94 C 208.86 194.05 206.85 199.38 209.83 202.07 C 212.80 204.84 217.27 204.19 221.01 204.45 C 224.52 204.21 228.56 204.70 231.55 202.49 C 235.15 199.91 232.79 194.02 236.87 191.85 C 240.97 189.88 245.23 185.41 250.09 187.82 C 253.12 189.27 257.19 189.41 259.42 186.50 C 262.89 182.22 266.02 177.37 267.36 171.97 C 267.86 167.00 261.37 166.02 260.58 161.61 C 260.12 158.56 260.16 155.42 260.52 152.36 C 261.03 147.77 267.55 146.85 267.37 141.99 C 266.72 137.91 264.37 134.34 262.24 130.87 C 260.58 128.55 258.94 125.68 255.95 124.95 C 252.10 123.75 248.53 127.97 244.75 126.15 C 241.89 124.76 239.11 123.20 236.42 121.51 C 233.12 119.30 234.85 114.47 232.23 111.80 C 230.71 110.03 228.28 109.65 226.09 109.44 C 221.88 109.06 217.60 109.06 213.43 109.78 Z" />
    <path fill="#157874" opacity="1.00"
      d=" M 216.39 139.53 C 226.16 136.66 237.22 143.83 238.58 153.91 C 240.39 163.33 233.30 173.15 223.84 174.48 C 213.87 176.44 203.47 168.28 203.08 158.11 C 202.27 149.76 208.25 141.49 216.39 139.53 Z" />
    <path fill="#157874" opacity="1.00"
      d=" M 111.20 151.36 C 114.84 150.60 118.95 150.33 122.49 151.63 C 127.18 153.96 126.07 161.79 120.88 162.61 C 117.57 162.87 114.01 163.30 110.83 162.14 C 106.43 160.13 106.66 153.05 111.20 151.36 Z" />
    <path fill="#157874" opacity="1.00"
      d=" M 320.21 151.25 C 323.64 150.61 327.32 150.50 330.71 151.38 C 335.42 153.18 335.29 160.66 330.55 162.34 C 327.04 163.08 323.18 163.20 319.71 162.22 C 315.01 160.29 315.34 152.72 320.21 151.25 Z" />
    <path fill="#157874" opacity="1.00"
      d=" M 182.01 264.08 C 207.94 264.03 233.87 264.03 259.81 264.08 C 259.52 273.34 255.77 282.54 248.89 288.85 C 242.99 294.55 234.97 297.62 226.86 298.26 C 226.87 306.71 226.86 315.16 226.87 323.62 C 276.24 323.61 325.62 323.62 374.99 323.61 C 377.92 323.29 381.16 325.05 381.71 328.10 C 382.12 331.74 381.86 335.40 381.93 339.05 C 381.91 341.42 382.04 344.23 379.99 345.89 C 377.11 348.73 371.66 347.45 370.38 343.61 C 369.70 340.97 369.98 338.21 369.92 335.52 C 322.23 335.53 274.55 335.53 226.86 335.53 C 226.68 340.21 227.33 344.97 226.49 349.60 C 224.88 354.49 217.14 354.58 215.40 349.74 C 214.37 345.09 215.11 340.25 214.93 335.53 C 167.24 335.53 119.55 335.53 71.86 335.52 C 71.57 338.94 72.82 343.25 69.91 345.87 C 66.89 348.93 61.01 347.24 60.14 343.03 C 59.64 338.36 59.80 333.62 60.00 328.94 C 60.10 325.45 63.68 323.20 66.94 323.60 C 116.27 323.62 165.59 323.60 214.91 323.62 C 214.92 315.16 214.88 306.71 214.94 298.26 C 207.59 297.64 200.31 295.14 194.62 290.34 C 186.76 284.02 182.31 274.09 182.01 264.08 Z" />
    <path fill="#157874" opacity="1.00"
      d=" M 60.50 365.88 C 68.36 364.01 77.04 366.49 82.72 372.23 C 89.04 378.38 91.41 388.20 88.55 396.55 C 85.65 405.73 76.71 412.62 67.05 412.91 C 58.73 413.44 50.36 409.13 45.87 402.12 C 41.01 394.83 40.75 384.80 45.17 377.25 C 48.43 371.56 54.11 367.34 60.50 365.88 Z" />
    <path fill="#157874" opacity="1.00"
      d=" M 355.33 365.44 C 368.54 365.06 381.78 365.37 395.00 365.29 C 397.65 364.95 400.14 367.23 399.80 369.95 C 399.85 382.63 399.82 395.32 399.81 408.01 C 400.10 410.31 398.51 412.89 396.00 412.85 C 382.99 413.03 369.96 412.89 356.95 412.91 C 354.63 413.19 352.10 411.56 352.19 409.06 C 352.03 396.02 352.14 382.96 352.14 369.92 C 351.93 367.89 353.25 365.77 355.33 365.44 Z" />
    <path fill="#157874" opacity="1.00"
      d=" M 219.41 368.35 C 220.60 366.77 222.77 368.01 223.34 369.56 C 230.82 382.48 238.17 395.47 245.60 408.41 C 247.02 409.97 246.56 413.08 244.03 412.87 C 229.02 413.01 213.99 412.88 198.97 412.93 C 197.28 413.15 194.84 412.31 195.43 410.14 C 197.48 405.73 200.22 401.68 202.53 397.40 C 208.23 387.77 213.39 377.77 219.41 368.35 Z" />
    <path fill="#157874" opacity="1.00"
      d=" M 573.50 385.70 C 583.98 382.84 595.82 391.15 596.47 402.04 C 597.01 407.02 595.61 412.41 597.84 417.10 C 600.16 420.22 605.19 422.45 608.64 419.77 C 614.05 415.86 619.41 411.88 624.55 407.63 C 627.03 405.68 629.71 403.52 632.99 403.31 C 635.62 403.06 638.11 404.26 640.14 405.83 C 653.62 416.08 667.54 425.74 681.08 435.89 C 687.14 441.83 687.16 451.08 687.66 458.99 C 687.35 489.32 687.55 519.64 687.50 549.97 C 687.56 556.84 687.80 564.17 684.30 570.36 C 678.82 581.35 661.68 581.75 654.11 572.83 C 649.62 568.08 648.64 561.24 649.18 554.98 C 649.30 517.29 649.07 479.60 649.53 441.91 C 649.48 435.34 649.94 428.74 649.33 422.19 C 649.11 418.86 645.59 417.46 643.47 415.43 C 640.24 413.11 637.34 409.49 633.14 409.18 C 630.20 410.28 627.92 412.57 625.36 414.32 C 616.23 420.87 607.35 427.76 598.03 434.04 C 591.26 438.70 582.16 439.64 574.59 436.45 C 565.93 433.01 559.78 424.35 559.09 415.10 C 558.78 411.07 558.79 407.01 558.98 402.98 C 559.32 394.84 565.58 387.48 573.50 385.70 Z" />
    <path fill="#157874" opacity="1.00"
      d=" M 418.46 444.74 C 428.31 442.16 438.80 449.48 440.70 459.26 C 441.13 462.16 441.05 465.10 441.08 468.03 C 441.16 508.05 441.09 548.07 441.12 588.08 C 440.98 591.20 442.30 594.32 444.87 596.16 C 451.68 601.37 458.52 606.55 465.37 611.70 C 468.20 614.05 472.91 614.40 475.51 611.52 C 480.06 606.15 479.32 598.26 483.76 592.82 C 489.38 585.28 501.21 583.64 508.72 589.24 C 515.85 594.36 518.19 604.24 516.23 612.49 C 512.53 624.74 498.69 633.41 486.06 630.39 C 481.80 629.34 477.81 627.32 474.27 624.76 C 452.89 609.15 431.42 593.65 410.19 577.83 C 404.77 574.18 402.93 567.19 402.82 561.00 C 402.84 528.32 402.77 495.63 402.85 462.95 C 402.88 454.17 409.84 446.19 418.46 444.74 Z" />
    <path fill="#157874" opacity="1.00"
      d=" M 698.78 447.02 C 700.27 444.27 704.23 444.76 706.92 444.29 C 713.56 444.28 721.01 443.12 726.79 447.19 C 730.54 449.51 732.41 453.65 734.34 457.43 C 736.30 453.36 738.28 448.76 742.64 446.74 C 748.40 444.15 754.94 444.26 761.13 444.38 C 769.10 444.36 775.11 450.70 779.48 456.70 C 780.87 453.59 782.14 450.12 785.05 448.07 C 788.29 445.79 792.33 445.29 796.14 444.62 C 806.82 442.56 818.06 452.09 817.70 462.98 C 817.49 495.31 818.10 527.64 817.23 559.96 C 817.18 562.82 816.97 565.81 815.57 568.38 C 809.88 580.69 790.04 583.19 781.99 572.03 C 779.36 568.61 779.06 564.14 779.20 560.00 C 779.21 542.34 779.29 524.67 779.16 507.01 C 778.93 490.17 773.80 473.11 763.15 459.91 C 761.66 457.73 758.31 457.56 756.67 459.65 C 752.88 464.19 753.83 470.48 753.74 475.96 C 753.93 481.95 753.34 487.99 754.04 493.96 C 755.37 498.87 760.69 500.82 764.34 503.75 C 764.54 500.42 764.69 497.09 764.76 493.77 C 766.48 493.77 768.22 493.77 769.96 493.78 C 769.42 499.47 768.93 505.16 768.41 510.85 C 766.23 510.55 763.83 510.62 762.05 509.13 C 752.86 502.43 743.67 495.74 734.48 489.05 C 725.21 495.60 716.25 502.63 706.61 508.65 C 704.44 510.15 701.84 510.63 699.27 510.80 C 699.05 505.12 698.91 499.43 698.45 493.77 C 700.32 493.71 702.20 493.66 704.08 493.61 C 704.27 496.98 704.48 500.36 704.69 503.74 C 708.50 500.26 714.94 498.00 715.22 492.07 C 715.36 484.03 715.24 475.98 715.27 467.95 C 715.37 463.70 713.84 459.19 710.19 456.75 C 707.43 454.54 703.74 454.97 700.49 454.33 C 697.71 453.11 698.70 449.40 698.78 447.02 Z" />
    <path fill="#157874" opacity="1.00"
      d=" M 45.22 450.21 C 49.01 446.96 53.87 444.62 58.93 444.59 C 83.61 444.60 108.30 444.64 132.98 444.58 C 141.56 443.95 150.46 449.95 152.46 458.45 C 153.23 464.95 152.70 471.55 152.84 478.10 C 158.86 475.40 165.49 474.49 172.04 474.65 C 186.06 474.87 200.09 474.78 214.11 475.17 C 219.26 475.23 223.29 479.46 224.75 484.13 C 227.02 491.12 223.83 498.87 218.56 503.60 C 204.73 513.56 190.90 523.53 177.07 533.49 C 175.12 533.48 173.18 533.48 171.24 533.49 C 171.23 527.86 171.24 522.24 171.23 516.61 C 172.90 516.62 174.58 516.62 176.25 516.62 C 176.24 520.00 176.25 523.39 176.23 526.78 C 180.19 523.45 186.04 521.28 187.59 515.90 C 187.96 509.11 188.16 502.20 187.30 495.45 C 183.32 485.41 169.64 482.61 160.82 487.79 C 155.76 491.00 152.92 497.12 153.00 503.03 C 152.82 519.70 152.89 536.37 152.88 553.04 C 153.65 566.24 142.19 578.99 128.93 579.35 C 121.46 579.19 114.28 576.12 108.32 571.72 C 91.51 559.87 74.73 547.98 57.91 536.16 C 51.90 531.92 45.23 527.89 41.73 521.16 C 40.23 518.71 40.02 515.79 40.03 513.00 C 39.93 496.33 40.06 479.67 40.12 463.01 C 40.09 458.31 41.56 453.36 45.22 450.21 M 83.44 477.54 C 80.30 479.18 77.33 482.19 77.73 486.03 C 77.72 503.03 77.73 520.04 77.85 537.04 C 77.75 540.23 78.68 543.69 81.40 545.63 C 87.13 549.92 93.05 553.97 98.80 558.24 C 101.72 560.38 105.08 563.01 108.95 562.09 C 113.49 560.68 115.14 555.29 115.11 551.00 C 115.09 529.67 115.12 508.33 115.10 487.00 C 115.22 483.01 113.34 478.11 109.05 477.14 C 103.06 476.58 97.03 477.09 91.03 476.89 C 88.51 477.02 85.81 476.48 83.44 477.54 Z" />
    <path fill="#157874" opacity="1.00"
      d=" M 237.05 451.96 C 237.52 448.06 240.77 444.05 245.04 444.60 C 285.37 444.62 325.71 444.61 366.04 444.60 C 370.55 444.66 375.20 444.20 379.56 445.64 C 386.78 447.87 392.27 455.31 391.63 462.94 C 391.56 513.65 391.62 564.36 391.60 615.07 C 391.96 626.41 379.50 634.74 368.94 632.65 C 361.61 631.33 354.37 625.82 353.48 618.04 C 353.07 612.05 353.44 606.03 353.31 600.03 C 344.37 607.16 337.18 616.32 327.58 622.63 C 315.51 630.24 300.96 632.26 287.01 633.46 C 283.94 633.90 280.60 632.89 278.91 630.16 C 276.02 625.67 274.98 620.22 274.51 614.99 C 274.29 607.62 281.30 602.28 287.94 601.00 C 298.79 599.85 309.69 599.22 320.55 598.19 C 323.05 598.00 325.33 596.93 327.45 595.65 C 324.28 595.38 321.11 595.64 317.96 595.98 C 313.04 596.52 308.07 595.50 303.58 593.50 C 294.60 589.61 285.64 585.64 276.94 581.14 C 272.51 579.12 270.04 574.45 268.77 569.97 C 267.34 565.11 270.26 559.90 274.59 557.63 C 278.37 555.49 282.85 555.80 287.03 555.75 C 302.99 555.78 318.96 555.67 334.92 555.79 C 342.35 555.78 349.13 559.90 353.34 565.87 C 353.30 546.18 353.30 526.50 353.34 506.81 C 349.55 504.48 343.48 501.52 340.18 506.15 C 335.97 512.79 333.86 521.42 326.59 525.60 C 317.52 530.61 305.46 530.08 296.99 524.03 C 292.45 520.81 289.11 515.64 288.80 510.02 C 288.57 505.23 288.77 500.43 288.60 495.65 C 283.53 494.06 277.74 492.85 272.90 495.79 C 273.04 506.90 272.78 518.02 273.02 529.13 C 273.28 534.58 279.49 536.17 283.32 538.67 C 283.30 536.07 283.31 533.46 283.30 530.87 C 285.26 530.86 287.22 530.86 289.19 530.87 C 289.18 537.25 289.19 543.63 289.19 550.01 C 286.79 549.88 284.23 550.17 282.08 548.89 C 270.36 542.95 258.62 537.05 246.87 531.18 C 238.23 526.84 234.35 515.25 238.51 506.54 C 240.03 502.97 242.94 500.18 246.36 498.44 C 259.15 491.31 272.26 484.80 285.29 478.14 C 290.39 475.37 296.09 473.25 301.99 473.79 C 309.99 474.49 318.20 478.52 322.15 485.77 C 325.15 490.65 324.06 496.59 324.32 502.02 C 324.55 503.51 323.72 505.88 325.79 506.31 C 327.80 506.47 329.81 506.19 331.81 506.00 C 334.12 501.23 336.38 496.44 338.71 491.69 C 339.76 489.81 340.77 487.51 343.00 486.81 C 347.53 487.58 350.42 491.58 353.35 494.73 C 353.13 487.49 353.64 480.23 353.11 473.02 C 351.39 470.41 347.81 470.62 345.06 470.46 C 312.37 470.46 279.68 470.45 246.99 470.46 C 242.22 470.73 237.31 466.95 237.00 462.04 C 236.70 458.69 236.66 455.30 237.05 451.96 M 308.07 573.96 C 305.75 576.38 306.96 579.99 306.68 583.00 C 309.92 584.41 313.50 585.31 317.04 584.58 C 320.75 584.04 324.97 581.96 328.34 584.64 C 332.98 587.96 332.90 594.32 333.12 599.44 C 338.28 593.80 344.34 588.99 351.08 585.37 C 346.90 579.07 340.69 574.13 333.54 571.65 C 328.51 570.07 323.17 570.68 318.00 570.80 C 314.58 571.13 310.45 571.04 308.07 573.96 Z" />
    <path fill="#157874" opacity="1.00"
      d=" M 456.88 450.89 C 460.89 447.04 466.38 444.46 472.00 444.58 C 497.34 444.64 522.68 444.59 548.02 444.61 C 556.43 445.23 564.73 452.15 565.11 460.92 C 565.31 466.65 565.22 472.38 565.20 478.11 C 571.09 475.45 577.59 474.52 584.02 474.65 C 598.06 474.85 612.11 474.80 626.15 475.15 C 630.51 475.12 634.38 478.07 636.19 481.93 C 640.17 489.51 636.57 499.20 630.14 504.20 C 617.12 513.51 604.15 522.89 591.18 532.26 C 589.09 534.12 586.14 533.30 583.62 533.55 C 583.62 527.90 583.63 522.26 583.61 516.62 C 585.28 516.62 586.95 516.62 588.62 516.61 C 588.62 519.99 588.62 523.37 588.61 526.75 C 591.85 524.28 595.51 522.27 598.28 519.23 C 600.75 516.44 600.13 512.49 600.25 509.08 C 600.06 504.21 600.71 499.18 599.33 494.45 C 594.65 485.39 582.26 482.88 573.63 487.53 C 568.31 490.64 565.27 496.94 565.35 503.01 C 565.24 520.01 565.26 537.00 565.25 554.00 C 565.51 566.65 554.61 578.54 541.98 579.33 C 534.40 579.41 527.05 576.34 520.99 571.93 C 503.41 559.56 485.88 547.10 468.28 534.76 C 462.82 531.03 457.13 527.04 454.01 521.02 C 452.10 517.67 452.38 513.71 452.30 510.01 C 452.10 494.67 452.45 479.33 452.44 464.00 C 452.40 459.32 453.40 454.27 456.88 450.89 M 496.30 477.32 C 492.97 478.88 489.70 481.96 490.11 485.96 C 490.11 503.00 490.12 520.04 490.21 537.08 C 490.07 540.38 491.19 543.93 494.03 545.86 C 500.40 550.50 506.84 555.05 513.20 559.71 C 515.82 561.65 519.45 563.23 522.61 561.58 C 526.17 559.44 527.52 554.94 527.44 551.00 C 527.37 529.33 527.47 507.65 527.39 485.98 C 527.51 481.42 524.00 476.36 519.00 476.92 C 511.45 477.15 503.77 476.38 496.30 477.32 Z" />
    <path fill="#157874" opacity="1.00"
      d=" M 830.75 446.76 C 832.00 444.54 834.84 444.92 837.00 444.80 C 879.99 444.59 922.98 444.60 965.97 444.62 C 975.12 444.68 983.72 452.67 983.78 461.95 C 983.72 493.64 983.65 525.34 983.59 557.03 C 983.47 563.90 981.49 571.51 975.72 575.80 C 968.13 580.78 957.05 579.92 950.67 573.31 C 947.41 570.09 945.33 565.60 945.27 561.00 C 945.01 547.01 945.61 533.01 945.55 519.02 C 945.65 514.70 942.96 510.83 939.70 508.24 C 938.03 506.84 935.17 507.08 934.13 509.12 C 930.28 516.99 929.19 526.07 924.61 533.61 C 919.50 541.43 909.47 545.20 900.41 543.29 C 890.59 541.45 882.31 533.04 881.03 523.06 C 880.13 515.45 881.48 507.76 880.63 500.15 C 880.07 495.43 874.56 492.35 870.22 494.24 C 866.66 495.49 864.67 499.29 864.95 502.94 C 864.94 519.99 864.91 537.04 864.96 554.09 C 864.50 560.54 871.21 563.35 875.32 566.91 C 875.54 563.67 875.76 560.43 875.95 557.19 C 877.75 557.19 879.56 557.18 881.38 557.18 C 881.22 562.60 881.02 568.03 880.57 573.45 C 878.02 573.30 875.12 573.91 873.02 572.09 C 860.49 562.93 847.93 553.81 835.40 544.65 C 831.08 541.60 829.79 536.06 829.25 531.10 C 828.51 523.77 830.52 515.31 837.00 511.01 C 850.39 501.04 864.07 491.44 877.55 481.57 C 882.50 477.81 888.80 475.62 895.06 476.39 C 905.03 477.35 913.61 485.26 915.84 494.95 C 917.58 503.17 916.01 511.64 916.84 519.95 C 918.01 522.91 922.63 522.66 923.60 519.65 C 926.44 512.21 928.65 504.54 931.46 497.09 C 931.94 495.25 934.13 493.86 935.89 495.03 C 939.26 497.10 941.33 500.84 945.08 502.39 C 945.50 493.24 945.29 484.06 945.25 474.90 C 945.45 472.05 942.60 470.14 939.98 470.46 C 905.99 470.44 872.00 470.49 838.01 470.43 C 833.03 470.69 828.60 466.02 829.11 461.06 C 829.35 456.32 828.14 451.04 830.75 446.76 Z" />
  </g>
</svg>