<svg id="Layer_1" data-name="Layer 1" xmlns="http://www.w3.org/2000/svg"
  xmlns:xlink="http://www.w3.org/1999/xlink" viewBox="0 0 406.49 437.87">
  <defs>
    <style>
      .cls-1,.cls-2{fill:none;}.cls-2{stroke:#010101;stroke-miterlimit:10;stroke-width:1.12px;}.cls-3{clip-path:url(#clip-path);}.cls-4{fill:#010101;}</style>
    <clipPath id="clip-path" transform="translate(-81.64 -51.32)">
      <rect class="cls-1" x="-522.97" y="-552.97" width="1612.86" height="1612.86" />
    </clipPath>
  </defs>
  <title>UM logo update-13042022</title>
  <line class="cls-2" x1="160.02" y1="285.64" x2="160.02" y2="70.92" />
  <line class="cls-2" x1="249.06" y1="288.78" x2="249.06" y2="70.92" />
  <line class="cls-2" x1="64.87" y1="284.12" x2="249.06" y2="287.73" />
  <line class="cls-2" x1="94.44" y1="219.84" x2="310.93" y2="224.08" />
  <line class="cls-2" x1="64.87" y1="284.12" x2="64.87" y2="189.99" />
  <line class="cls-2" x1="310.9" y1="316.68" x2="310.9" y2="134.35" />
  <line class="cls-2" x1="160.02" y1="70.92" x2="344.55" y2="70.92" />
  <line class="cls-2" x1="160.02" y1="285.64" x2="29.55" y2="153.8" />
  <line class="cls-2" x1="249.06" y1="70.92" x2="94.44" y2="219.83" />
  <line class="cls-2" x1="97.4" y1="129.37" x2="230.84" y2="4.07" />
  <line class="cls-2" x1="97.4" y1="131.46" x2="310.9" y2="136.43" />
  <line class="cls-2" x1="249.06" y1="287.73" x2="97.4" y2="129.37" />
  <line class="cls-2" x1="94.44" y1="219.84" x2="94.44" y2="36.85" />
  <line class="cls-2" x1="29.55" y1="153.8" x2="94.61" y2="88.74" />
  <line class="cls-2" x1="182.85" y1="354.99" x2="113.89" y2="286.03" />
  <line class="cls-2" x1="310.93" y1="224.08" x2="182.85" y2="354.99" />
  <line class="cls-2" x1="222.11" y1="315.73" x2="310.9" y2="315.73" />
  <line class="cls-2" x1="249.06" y1="70.92" x2="378.19" y2="200.05" />
  <line class="cls-2" x1="310.9" y1="267.33" x2="378.19" y2="200.05" />
  <line class="cls-2" x1="344.55" y1="70.92" x2="344.55" y2="166.41" />
  <line class="cls-2" x1="94.44" y1="36.84" x2="195.94" y2="36.84" />
  <line class="cls-2" x1="230.84" y1="4.07" x2="297.15" y2="70.38" />
  <line class="cls-2" x1="160.02" y1="70.92" x2="310.93" y2="224.08" />
  <line class="cls-2" x1="310.9" y1="134.35" x2="160.02" y2="285.64" />
  <g class="cls-3">
    <path class="cls-4" d="M119.92,205a7.12,7.12,0,1,1-7.12-7.12,7.12,7.12,0,0,1,7.12,7.12"
      transform="translate(-81.64 -51.32)" />
    <path class="cls-4" d="M248.74,183.18a7.12,7.12,0,1,1-7.12-7.12,7.11,7.11,0,0,1,7.12,7.12"
      transform="translate(-81.64 -51.32)" />
    <path class="cls-4" d="M183.54,88.54a7.12,7.12,0,1,1-7.11-7.12,7.11,7.11,0,0,1,7.11,7.12"
      transform="translate(-81.64 -51.32)" />
    <path class="cls-4" d="M183.67,181.74a7.12,7.12,0,1,1-7.12-7.12,7.11,7.11,0,0,1,7.12,7.12"
      transform="translate(-81.64 -51.32)" />
    <path class="cls-4" d="M337.22,276.35a7.12,7.12,0,1,1-7.11-7.12,7.11,7.11,0,0,1,7.11,7.12"
      transform="translate(-81.64 -51.32)" />
    <path class="cls-4" d="M271.71,406.2a7.12,7.12,0,1,1-7.12-7.12,7.12,7.12,0,0,1,7.12,7.12"
      transform="translate(-81.64 -51.32)" />
    <path class="cls-4" d="M337.22,340.1a7.12,7.12,0,1,1-7.11-7.12,7.11,7.11,0,0,1,7.11,7.12"
      transform="translate(-81.64 -51.32)" />
    <path class="cls-4" d="M180.62,271.16a4.07,4.07,0,1,1-4.07-4.07,4.07,4.07,0,0,1,4.07,4.07"
      transform="translate(-81.64 -51.32)" />
    <path class="cls-4" d="M246.08,337.3a4.08,4.08,0,1,1-4.07-4.07,4.08,4.08,0,0,1,4.07,4.07"
      transform="translate(-81.64 -51.32)" />
    <path class="cls-4" d="M245.73,273.16a4.07,4.07,0,1,1-4.07-4.07,4.07,4.07,0,0,1,4.07,4.07"
      transform="translate(-81.64 -51.32)" />
    <path class="cls-4" d="M334.77,186.8a4.07,4.07,0,1,1-4.08-4.07,4.08,4.08,0,0,1,4.08,4.07"
      transform="translate(-81.64 -51.32)" />
    <path class="cls-4" d="M245.73,121.89a4.07,4.07,0,1,1-4.07-4.07,4.07,4.07,0,0,1,4.07,4.07"
      transform="translate(-81.64 -51.32)" />
    <path class="cls-4" d="M334.77,122.24a4.07,4.07,0,1,1-4.08-4.08,4.08,4.08,0,0,1,4.08,4.08"
      transform="translate(-81.64 -51.32)" />
    <path class="cls-4" d="M383.05,121.89a4.07,4.07,0,1,1-4.07-4.07,4.07,4.07,0,0,1,4.07,4.07"
      transform="translate(-81.64 -51.32)" />
    <path class="cls-4" d="M433.3,122.24a7.12,7.12,0,1,1-7.11-7.12,7.11,7.11,0,0,1,7.11,7.12"
      transform="translate(-81.64 -51.32)" />
    <path class="cls-4" d="M399.66,186.8a7.12,7.12,0,1,1-7.12-7.12,7.12,7.12,0,0,1,7.12,7.12"
      transform="translate(-81.64 -51.32)" />
    <path class="cls-4" d="M316.55,55.39a4.07,4.07,0,1,1-4.07-4.07,4.07,4.07,0,0,1,4.07,4.07"
      transform="translate(-81.64 -51.32)" />
    <path class="cls-4" d="M463.9,251.37a4.07,4.07,0,1,1-4.07-4.08,4.07,4.07,0,0,1,4.07,4.08"
      transform="translate(-81.64 -51.32)" />
    <path class="cls-4" d="M396.48,275.23a4.07,4.07,0,1,1-4.07-4.07,4.08,4.08,0,0,1,4.07,4.07"
      transform="translate(-81.64 -51.32)" />
    <path class="cls-4" d="M396.62,367a4.08,4.08,0,1,1-4.08-4.07,4.08,4.08,0,0,1,4.08,4.07"
      transform="translate(-81.64 -51.32)" />
    <path class="cls-4" d="M199.22,336.39a4.07,4.07,0,1,1-4.07-4.08,4.07,4.07,0,0,1,4.07,4.08"
      transform="translate(-81.64 -51.32)" />
    <path class="cls-4" d="M153.63,335.43a7.12,7.12,0,1,1-7.12-7.12,7.12,7.12,0,0,1,7.12,7.12"
      transform="translate(-81.64 -51.32)" />
    <path class="cls-4" d="M180.15,140.23a4.08,4.08,0,1,1-4.08-4.08,4.08,4.08,0,0,1,4.08,4.08"
      transform="translate(-81.64 -51.32)" />
    <path class="cls-4" d="M150.58,241.3a4.08,4.08,0,1,1-4.07-4.07,4.08,4.08,0,0,1,4.07,4.07"
      transform="translate(-81.64 -51.32)" />
    <path class="cls-4" d="M397.37,317.9a4.07,4.07,0,1,1-4.07-4.08,4.07,4.07,0,0,1,4.07,4.08"
      transform="translate(-81.64 -51.32)" />
    <path class="cls-4" d="M430.26,216.37a4.08,4.08,0,1,1-4.07-4.07,4.07,4.07,0,0,1,4.07,4.07"
      transform="translate(-81.64 -51.32)" />
    <path class="cls-4" d="M280.54,88.54a4.08,4.08,0,1,1-4.08-4.07,4.08,4.08,0,0,1,4.08,4.07"
      transform="translate(-81.64 -51.32)" />
  </g>
  <g class="cls-3">
    <path class="cls-4"
      d="M81.64,460H87.3v18.15a5.48,5.48,0,0,0,1.25,3.71,5.41,5.41,0,0,0,7.33,0,5.47,5.47,0,0,0,1.24-3.71V460h5.65V478.5A10.2,10.2,0,0,1,101.4,484a8.69,8.69,0,0,1-3.77,3.38,13.45,13.45,0,0,1-10.84,0A8.72,8.72,0,0,1,83,484a10.29,10.29,0,0,1-1.37-5.46Z"
      transform="translate(-81.64 -51.32)" />
    <polygon class="cls-4"
      points="46.41 408.72 51.87 408.72 51.87 437.6 32.38 419.6 32.38 436.22 26.88 436.22 26.88 407.35 46.41 425.34 46.41 408.72" />
    <rect class="cls-4" x="57.81" y="408.72" width="5.74" height="27.5" />
    <polygon class="cls-4"
      points="80.48 426.56 87.87 408.72 94.47 408.72 80.48 437.87 66.5 408.72 73.1 408.72 80.48 426.56" />
    <polygon class="cls-4"
      points="102.97 423.96 102.97 431.43 114.99 431.43 114.99 436.22 102.97 436.22 101.08 436.22 97.47 436.22 97.47 408.72 101.08 408.72 102.97 408.72 114.99 408.72 114.99 413.51 102.97 413.51 102.97 419.29 114.2 419.29 114.2 423.96 102.97 423.96" />
    <path class="cls-4"
      d="M207.84,477.56v10h-5.66V460h9.27a12.7,12.7,0,0,1,5.56,1.1,8.08,8.08,0,0,1,3.51,3.08,8.59,8.59,0,0,1,1.22,4.62,8.37,8.37,0,0,1-1.51,5,8.46,8.46,0,0,1-4.3,3l7.46,10.65h-6.72l-6.44-10Zm0-4.48h3.26a5.28,5.28,0,0,0,3.49-1.08,4.17,4.17,0,0,0,0-6.05,5.28,5.28,0,0,0-3.49-1.08h-3.26Z"
      transform="translate(-81.64 -51.32)" />
    <path class="cls-4"
      d="M229.1,478a13.54,13.54,0,0,0,3,4,5.71,5.71,0,0,0,3.87,1.37,4.16,4.16,0,0,0,2.81-.84,3.34,3.34,0,0,0,.14-4.56,7,7,0,0,0-2.16-1.45q-1.33-.62-2.91-1.2-1-.39-2.28-1a12.41,12.41,0,0,1-2.39-1.59,8,8,0,0,1-1.89-2.36,6.92,6.92,0,0,1-.74-3.32,6.64,6.64,0,0,1,1.17-3.91,7.89,7.89,0,0,1,3.26-2.61,11.43,11.43,0,0,1,4.76-.94,11,11,0,0,1,4.67.9,9.37,9.37,0,0,1,3.14,2.28,9,9,0,0,1,1.77,2.79L241,468.05a9,9,0,0,0-2-2.63,4.41,4.41,0,0,0-3-1,4.19,4.19,0,0,0-2.61.74,2.46,2.46,0,0,0-1,2.05,2.29,2.29,0,0,0,.9,1.81,9.12,9.12,0,0,0,2.34,1.33c1,.39,2,.79,3.08,1.18a15.49,15.49,0,0,1,3.36,1.67,8.36,8.36,0,0,1,2.6,2.69,7.73,7.73,0,0,1,1,4,7.58,7.58,0,0,1-2.63,6.16,11,11,0,0,1-7.23,2.17,11.2,11.2,0,0,1-4.56-.92,11.49,11.49,0,0,1-6.21-6.54Z"
      transform="translate(-81.64 -51.32)" />
    <path class="cls-4"
      d="M256.53,481.33l-2.87,6.21h-6.4l14-29.15,14,29.15h-6.4L266,481.33Zm1.34-4.48h6.75L261.24,469Z"
      transform="translate(-81.64 -51.32)" />
    <polygon class="cls-4"
      points="196.59 408.72 202.24 408.72 202.24 431.27 213.21 431.27 213.21 436.22 196.59 436.22 196.59 408.72" />
    <polygon class="cls-4"
      points="234.27 421.06 232.51 436.22 226.61 436.22 230.7 407.35 242.25 425.06 253.72 407.35 257.88 436.22 251.91 436.22 250.14 421.06 242.25 433.67 234.27 421.06" />
    <path class="cls-4"
      d="M350.14,481.33l-2.86,6.21h-6.41l14-29.15,14,29.15h-6.41l-2.86-6.21Zm1.34-4.48h6.76L354.86,469Z"
      transform="translate(-81.64 -51.32)" />
    <path class="cls-4"
      d="M375.22,473.79a8.93,8.93,0,0,0,1.22,4.71,8.35,8.35,0,0,0,3.22,3.08,9.07,9.07,0,0,0,4.36,1.09,10.48,10.48,0,0,0,5-1.1,12.11,12.11,0,0,0,3.44-2.68v6.37a13.83,13.83,0,0,1-3.65,2.08,14.14,14.14,0,0,1-5,.75,16.09,16.09,0,0,1-5.88-1,13.91,13.91,0,0,1-4.65-2.92,13.46,13.46,0,0,1-3.07-4.52,15.92,15.92,0,0,1,0-11.63,13.46,13.46,0,0,1,3.07-4.52,13.91,13.91,0,0,1,4.65-2.92,16.29,16.29,0,0,1,5.88-1,14.68,14.68,0,0,1,5,.72,12.9,12.9,0,0,1,3.65,2.11v6.36A11.47,11.47,0,0,0,389,466a10.6,10.6,0,0,0-5-1.08,9.06,9.06,0,0,0-4.36,1.08,8.42,8.42,0,0,0-3.22,3.08,8.94,8.94,0,0,0-1.22,4.72"
      transform="translate(-81.64 -51.32)" />
    <polygon class="cls-4"
      points="316.34 408.72 322 408.72 322 419.01 334.8 419.01 334.8 408.72 340.46 408.72 340.46 436.22 334.8 436.22 334.8 424.16 322 424.16 322 436.22 316.34 436.22 316.34 408.72" />
    <rect class="cls-4" x="346.36" y="408.72" width="5.74" height="27.5" />
    <polygon class="cls-4"
      points="377.57 408.72 383.02 408.72 383.02 437.6 363.54 419.6 363.54 436.22 358.04 436.22 358.04 407.35 377.57 425.34 377.57 408.72" />
    <polygon class="cls-4"
      points="394.47 423.96 394.47 431.43 406.49 431.43 406.49 436.22 394.47 436.22 392.58 436.22 388.97 436.22 388.97 408.72 392.58 408.72 394.47 408.72 406.49 408.72 406.49 413.51 394.47 413.51 394.47 419.29 405.71 419.29 405.71 423.96 394.47 423.96" />
  </g>
</svg>